<svg width="28" height="28" viewBox="0 0 28 28" fill="none" xmlns="http://www.w3.org/2000/svg">
<g id="Avatar">
<rect x="0.14" y="0.14" width="27.72" height="27.72" rx="13.86" fill="white"/>
<rect x="0.14" y="0.14" width="27.72" height="27.72" rx="13.86" stroke="#E1E6EF" stroke-width="0.28"/>
<g id="Group">
<path id="Vector" opacity="0.72" d="M5.13881 22.1169C5.09367 22.9087 9.08872 23.7824 14.0593 24.065C19.0359 24.351 23.0997 23.9359 23.1395 23.1447C23.188 22.3482 19.1983 21.4712 14.2217 21.1892C9.25243 20.9018 5.18327 21.3197 5.13881 22.1169Z" fill="url(#paint0_radial_1424_8148)"/>
<g id="Group_2">
<g id="Group_3">
<path id="Vector_2" fill-rule="evenodd" clip-rule="evenodd" d="M7.78516 16.1699C8.4811 17.3019 9.50917 18.2979 10.5521 19.3088C10.3102 18.4014 9.95785 17.3857 9.93495 16.4742C9.67759 14.6627 9.86623 13.0683 10.3041 11.4697L10.1862 11.3555C6.93967 13.5734 4.961 16.7893 4.67603 20.0857C4.98862 18.3797 5.9884 16.8779 7.78516 16.1699Z" fill="#E89818"/>
<path id="Vector_3" fill-rule="evenodd" clip-rule="evenodd" d="M13.6458 21.1709C16.732 22.5969 20.0095 22.6497 22.5865 21.5901C21.1333 21.9579 19.6532 21.6415 18.1582 20.6401C18.7106 19.8421 19.1459 18.9306 19.3608 18.0056C18.9107 18.4735 18.3516 18.8197 17.7904 19.1802C16.573 20.2228 15.1063 20.8104 13.6458 21.1709Z" fill="#7AAE25"/>
<path id="Vector_4" fill-rule="evenodd" clip-rule="evenodd" d="M19.8385 13.035C19.5408 8.94671 17.4462 5.56915 14.5897 3.91992C16.1931 5.03022 17.2327 6.71123 17.0568 8.99066C15.6899 9.01501 14.3418 9.27196 12.9917 9.74123C14.1202 9.94747 15.2594 10.1611 16.2949 10.7041C17.5459 11.2437 18.8044 12.0315 19.8385 13.035Z" fill="#3976CF"/>
</g>
</g>
<g id="Frame" clip-path="url(#clip0_1424_8148)">
<path id="Vector_5" fill-rule="evenodd" clip-rule="evenodd" d="M15.7973 12.9101C16.2209 13.0998 16.5748 13.3828 16.8445 13.7232C18.5093 13.5579 18.2975 13.3847 19.1641 14.5798L17.2406 14.7706C16.6774 14.8266 16.1139 14.9096 15.5516 14.9602C15.3672 14.9764 15.0691 15.0041 14.8945 14.9259C14.7193 14.8474 14.5411 14.6072 14.4313 14.4585C14.0947 14.0053 13.7814 13.5296 13.4482 13.0721L12.3106 11.5096L13.5929 11.4337C14.4795 11.201 15.4509 11.259 16.3553 11.664C16.9727 11.9405 17.4894 12.3476 17.8885 12.8376L17.1523 12.9106C16.8585 12.6238 16.5102 12.3829 16.1137 12.2053C15.4152 11.8925 14.6709 11.822 13.9749 11.957L14.4948 12.6702C14.9269 12.6448 15.3736 12.7204 15.7973 12.9101Z" fill="#F29B12"/>
<path id="Vector_6" fill-rule="evenodd" clip-rule="evenodd" d="M16.3215 11.7395C15.4668 11.3568 14.5177 11.2773 13.6146 11.5136L13.6063 11.5157L12.4663 11.5837L13.5149 13.0235C13.8496 13.481 14.161 13.9543 14.4986 14.4087C14.5994 14.5446 14.7725 14.7795 14.9287 14.8495L15.7637 12.985C15.3659 12.8068 14.9337 12.7268 14.4992 12.7526L14.4535 12.7556L13.8305 11.9002L13.9582 11.8754C14.6978 11.7322 15.458 11.8215 16.1473 12.1301L16.3221 11.7398L16.3215 11.7395Z" fill="#F1AF10"/>
<path id="Vector_7" fill-rule="evenodd" clip-rule="evenodd" d="M11.9102 15.7002C11.8611 15.2411 11.9287 14.7968 12.0891 14.3957C11.1039 13.0435 11.0605 13.3119 11.6632 11.9745L12.801 13.5363C13.1343 13.9938 13.4919 14.4381 13.8192 14.8973C13.9267 15.048 14.1007 15.2907 14.1212 15.4807C14.1413 15.6699 14.0222 15.9424 13.9483 16.1107C13.724 16.6246 13.4681 17.1302 13.2381 17.6437L12.453 19.3966L11.7387 18.3298C11.088 17.681 10.6479 16.8161 10.5433 15.8364C10.4729 15.1678 10.5661 14.5213 10.791 13.9351L11.2267 14.533C11.1253 14.9276 11.0915 15.3475 11.1374 15.7774C11.2182 16.5333 11.5322 17.21 12.0014 17.743L12.3603 16.9416C12.1189 16.5808 11.9592 16.1593 11.9102 15.7002Z" fill="#E03136"/>
<path id="Vector_8" fill-rule="evenodd" clip-rule="evenodd" d="M10.6269 15.8278C10.7254 16.7535 11.136 17.6103 11.7983 18.2708L11.804 18.2763L12.4385 19.2247L13.1621 17.609C13.3921 17.0954 13.6467 16.5929 13.8718 16.0771C13.9394 15.9229 14.0561 15.6574 14.0381 15.4882L11.9935 15.6922C12.0398 16.1229 12.1881 16.535 12.43 16.8967L12.4558 16.9346L12.0258 17.8946L11.9398 17.7967C11.4408 17.2313 11.1341 16.5316 11.055 15.7851L10.6269 15.8278Z" fill="#E7595B"/>
<path id="Vector_9" fill-rule="evenodd" clip-rule="evenodd" d="M16.3041 17.6682C15.9289 17.9373 15.5081 18.0989 15.0782 18.1589C14.3983 19.677 14.6538 19.5813 13.1848 19.7245L13.9699 17.9716C14.1999 17.4581 14.4064 16.9311 14.6407 16.4209C14.7177 16.254 14.8411 15.9834 14.9956 15.8725C15.1501 15.7616 15.448 15.7295 15.6319 15.7093C16.1931 15.648 16.7621 15.6187 17.3253 15.5627L19.2482 15.3716L18.68 16.515C18.444 17.3964 17.9128 18.2034 17.1129 18.778C16.5669 19.1698 15.9567 19.4099 15.3329 19.5054L15.6336 18.8339C16.0283 18.7258 16.4109 18.5471 16.7622 18.2951C17.38 17.852 17.8102 17.2458 18.0367 16.5784L17.1585 16.6654C16.9657 17.0529 16.6793 17.3991 16.3041 17.6682Z" fill="#1D656D"/>
<path id="Vector_10" fill-rule="evenodd" clip-rule="evenodd" d="M17.0639 18.7105C17.8202 18.1675 18.3587 17.3902 18.5997 16.4928L18.6018 16.4849L19.1071 15.4686L17.3341 15.6447C16.7709 15.7008 16.2043 15.7297 15.6416 15.7911C15.4732 15.8094 15.1834 15.84 15.0453 15.9392L16.2554 17.6C16.6076 17.3477 16.8908 17.0154 17.0835 16.628L17.1039 16.5873L18.1569 16.4826L18.1156 16.6047C17.8747 17.314 17.4205 17.9241 16.811 18.3622L17.0639 18.7105Z" fill="#237780"/>
</g>
</g>
</g>
<defs>
<radialGradient id="paint0_radial_1424_8148" cx="0" cy="0" r="1" gradientUnits="userSpaceOnUse" gradientTransform="translate(14.1394 22.6271) rotate(-176.764) scale(9.00275 1.44223)">
<stop stop-color="#272727"/>
<stop offset="0.0643" stop-color="#4C4C4C"/>
<stop offset="0.1592" stop-color="#7B7B7B"/>
<stop offset="0.2572" stop-color="#A3A3A3"/>
<stop offset="0.3569" stop-color="#C5C5C5"/>
<stop offset="0.4588" stop-color="#DEDEDE"/>
<stop offset="0.5637" stop-color="#F1F1F1"/>
<stop offset="0.6735" stop-color="#FBFBFB"/>
<stop offset="0.7963" stop-color="white"/>
</radialGradient>
<clipPath id="clip0_1424_8148">
<rect width="8.31287" height="8.65236" fill="white" transform="translate(12.562 9.96484) rotate(24.1254)"/>
</clipPath>
</defs>
</svg>
