<svg width="285" height="258" viewBox="0 0 285 258" fill="none" xmlns="http://www.w3.org/2000/svg">
<g opacity="0.5" filter="url(#filter0_i_4578_2722)">
<path fill-rule="evenodd" clip-rule="evenodd" d="M83.1335 80.0031C82.8743 72.5686 63.5124 74.2444 56.0435 74.9617C48.5745 75.6789 47.8964 65.4942 54.3406 63.9803C60.7847 62.4664 72.4706 63.2477 78.5254 61.8502C84.5802 60.4528 76.9211 52.9581 85.1711 52.0547C93.421 51.1514 110.48 51.9878 115.565 51.8043C123.553 51.516 127.652 61.1369 113.657 61.5735C109.798 61.6939 109.024 70.2409 122.05 67.8932C130.225 66.4198 146.265 66.3858 149.601 70.1474C151.516 72.3056 150.852 78.1038 147.561 81.3056C145.116 83.6841 137.341 84.1478 134.295 84.6976C127.149 85.9876 128.562 92.9096 130.998 94.3349C136.764 97.7076 152.589 91.3424 153.013 100.604C153.2 104.696 138.802 105.357 132.898 105.307C118.419 105.184 108.905 106.475 108.237 101.534C107.567 96.5727 117.235 99.9211 116.758 93.8224C116.509 90.6354 117.177 83.8635 110.974 84.2189C119.466 83.7323 83.4835 90.0442 83.1335 80.0031Z" fill="url(#paint0_linear_4578_2722)"/>
</g>
<g opacity="0.5" filter="url(#filter1_i_4578_2722)">
<path fill-rule="evenodd" clip-rule="evenodd" d="M171.104 50.9637C171.124 43.5247 151.713 44.4741 144.222 44.911C136.731 45.3479 136.435 35.1449 142.931 33.8735C149.428 32.6021 161.076 33.8205 167.179 32.6509C173.282 31.4812 165.909 23.7049 174.187 23.1112C182.464 22.5176 199.48 23.9924 204.569 23.9995C212.562 24.0106 216.297 33.7784 202.296 33.6904C198.435 33.6661 197.342 42.1781 210.447 40.32C218.672 39.154 234.701 39.7208 237.894 43.6047C239.727 45.8331 238.847 51.6024 235.438 54.6786C232.906 56.9639 225.119 57.136 222.054 57.5714C214.865 58.5927 216.018 65.5629 218.399 67.0784C224.035 70.6648 240.087 64.8968 240.164 74.1675C240.198 78.2642 225.785 78.3851 219.887 78.114C205.423 77.4491 195.867 78.3825 195.385 73.4194C194.901 68.4369 204.437 72.1451 204.189 66.0328C204.059 62.8388 204.98 56.0966 198.768 56.2194C207.272 56.0513 171.078 61.0108 171.104 50.9637Z" fill="url(#paint1_linear_4578_2722)"/>
</g>
<path fill-rule="evenodd" clip-rule="evenodd" d="M348.597 181.996C333.669 176.327 295.642 162.844 262.201 162.844C228.761 162.844 187.307 184.669 160.556 187.146C133.805 189.622 64.9916 191.338 64.9916 191.338V224.603H348.597C348.597 224.603 348.597 203.723 348.597 181.996Z" fill="url(#paint2_linear_4578_2722)"/>
<path d="M224.933 182.161C224.933 172.295 233.176 141.764 244.302 125.059" stroke="url(#paint3_linear_4578_2722)" stroke-width="4.544" stroke-linecap="round"/>
<ellipse cx="2.86005" cy="8.9767" rx="2.86005" ry="8.9767" transform="matrix(0.865926 -0.500172 0.499828 0.866125 227.7 115.586)" fill="url(#paint4_linear_4578_2722)"/>
<ellipse cx="2.86103" cy="8.97362" rx="2.86103" ry="8.97362" transform="matrix(0.0348835 0.999391 -0.99939 0.0349155 259.836 127.918)" fill="url(#paint5_linear_4578_2722)"/>
<ellipse cx="2.86104" cy="8.9736" rx="2.86104" ry="8.9736" transform="matrix(-0.0174444 0.999848 -0.999848 -0.0174605 254.665 141.41)" fill="url(#paint6_linear_4578_2722)"/>
<ellipse cx="2.86104" cy="8.97361" rx="2.86104" ry="8.97361" transform="matrix(-0.0174444 0.999848 -0.999848 -0.0174604 250.326 154.039)" fill="url(#paint7_linear_4578_2722)"/>
<ellipse cx="2.86011" cy="8.97651" rx="2.86011" ry="8.97651" transform="matrix(0.838556 0.544815 -0.544463 0.838785 252.621 106.562)" fill="url(#paint8_linear_4578_2722)"/>
<ellipse cx="2.86029" cy="8.97596" rx="2.86029" ry="8.97596" transform="matrix(0.75456 -0.656231 0.655887 0.754859 219.523 130.809)" fill="url(#paint9_linear_4578_2722)"/>
<ellipse cx="2.86042" cy="8.97553" rx="2.86042" ry="8.97553" transform="matrix(0.681831 -0.73151 0.731197 0.682166 213.73 145.488)" fill="url(#paint10_linear_4578_2722)"/>
<g opacity="0.3">
<path fill-rule="evenodd" clip-rule="evenodd" d="M44.9013 163.76C42.8673 165.56 35.132 161.96 32.0652 156.372C28.9983 150.783 34.6874 148.794 26.9493 139.856C19.2112 130.918 14.246 127.495 18.9419 112.763C23.6379 98.0307 17.1505 89.8431 25.7223 85.9995C34.2942 82.1558 39.2307 94.9124 38.2475 106.133C37.2643 117.354 39.2753 119.679 47.6597 118.516C56.0441 117.354 48.9753 133.827 48.9753 137.422C48.9753 141.018 54.0593 147.697 53.0046 152.721C51.9499 157.746 46.9353 161.96 44.9013 163.76Z" fill="url(#paint11_linear_4578_2722)"/>
<path d="M40.0044 148.095C41.5114 145.657 44.4927 137.506 44.4927 131.5" stroke="url(#paint12_linear_4578_2722)" stroke-width="4.544" stroke-linecap="round"/>
<path d="M34.0771 131.993C34.0771 129.233 26.3321 127.295 22.5408 122.059" stroke="url(#paint13_linear_4578_2722)" stroke-width="4.544" stroke-linecap="round"/>
<path d="M51.2946 188.423C50.7793 185.865 49.4309 175.831 45.5167 164.087C39.3234 145.504 29.7188 121.235 29.7188 104.848" stroke="url(#paint14_linear_4578_2722)" stroke-width="4.544" stroke-linecap="round"/>
</g>
<ellipse opacity="0.084933" cx="221.29" cy="182.772" rx="17.4542" ry="0.986564" fill="#8699BF"/>
<path fill-rule="evenodd" clip-rule="evenodd" d="M0.894287 186.335C18.8851 180.667 64.7136 167.184 105.014 167.184C145.315 167.184 195.272 189.009 227.511 191.485C259.75 193.962 342.68 195.677 342.68 195.677V257.75H0.894287C0.894287 257.75 0.894287 208.062 0.894287 186.335Z" fill="url(#paint15_linear_4578_2722)"/>
<g opacity="0.3">
<path d="M223.436 182.766C225.722 175.729 226.89 152.032 222.789 137.525" stroke="url(#paint16_linear_4578_2722)" stroke-width="3.408" stroke-linecap="round"/>
<ellipse cx="2.15447" cy="6.7316" rx="2.15447" ry="6.7316" transform="matrix(-0.668961 -0.743298 -0.742992 0.6693 236.862 134.629)" fill="url(#paint17_linear_4578_2722)"/>
<ellipse cx="2.15479" cy="6.73057" rx="2.15479" ry="6.73057" transform="matrix(-0.341881 0.939743 0.939642 0.342159 211.03 135.945)" fill="url(#paint18_linear_4578_2722)"/>
<ellipse cx="2.15482" cy="6.73047" rx="2.15482" ry="6.73047" transform="matrix(-0.292249 0.956342 0.956267 0.292495 211.609 146.77)" fill="url(#paint19_linear_4578_2722)"/>
<ellipse cx="2.15482" cy="6.73048" rx="2.15482" ry="6.73048" transform="matrix(-0.29225 0.956342 0.956267 0.292494 211.792 156.789)" fill="url(#paint20_linear_4578_2722)"/>
<ellipse cx="2.15399" cy="6.73309" rx="2.15399" ry="6.73309" transform="matrix(-0.965896 0.25893 0.258708 0.965955 221.132 122.391)" fill="url(#paint21_linear_4578_2722)"/>
<ellipse cx="2.15465" cy="6.73103" rx="2.15465" ry="6.73103" transform="matrix(-0.514864 -0.857272 -0.857063 0.515212 239.188 147.391)" fill="url(#paint22_linear_4578_2722)"/>
<ellipse cx="2.15473" cy="6.73076" rx="2.15473" ry="6.73076" transform="matrix(-0.422458 -0.906382 -0.906233 0.422778 239.935 159.215)" fill="url(#paint23_linear_4578_2722)"/>
</g>
<path fill-rule="evenodd" clip-rule="evenodd" d="M62.2239 181.741C61.5685 181.336 46.0678 174.565 47.4991 173.116C48.9303 171.668 55.912 171.668 55.912 171.668C55.912 171.668 62.8793 182.145 62.2239 181.741Z" fill="url(#paint24_linear_4578_2722)" style="mix-blend-mode:multiply"/>
<g filter="url(#filter2_i_4578_2722)">
<path fill-rule="evenodd" clip-rule="evenodd" d="M60.5687 170.112C55.061 168.668 38.8139 161.684 43.5649 153.51C48.3158 145.336 53.0668 142.983 48.3158 139.247C43.5649 135.511 46.9403 127.203 51.6371 123.784C56.3339 120.364 45.2114 110.177 50.3065 104.787C55.4016 99.3975 71.6889 107.723 72.066 117.915C72.4432 128.106 76.2324 127.401 78.1582 132.002C80.0841 136.604 66.7434 143.511 68.6928 148.51C70.6423 153.51 82.0135 158.724 75.3532 165.459C68.6929 172.195 66.0763 171.557 60.5687 170.112Z" fill="url(#paint25_radial_4578_2722)"/>
</g>
<path fill-rule="evenodd" clip-rule="evenodd" d="M62.0332 180.794C62.6757 169.269 50.7997 164.463 59.2469 148.24C67.6939 132.016 61.8245 118.007 59.2469 112.673" fill="black" fill-opacity="0.01"/>
<path d="M62.0332 180.794C62.6757 169.269 50.7997 164.463 59.2469 148.24C67.6939 132.016 61.8245 118.007 59.2469 112.673" stroke="url(#paint26_linear_4578_2722)" stroke-width="4.544" stroke-linecap="round" stroke-linejoin="round"/>
<g opacity="0.3">
<path fill-rule="evenodd" clip-rule="evenodd" d="M61.2445 141.136C59.7722 140.435 57.0628 138.461 55.7222 135.414Z" fill="black" fill-opacity="0.01"/>
<path d="M61.2445 141.136C59.7722 140.435 57.0628 138.461 55.7222 135.414" stroke="url(#paint27_linear_4578_2722)" stroke-width="3.78667" stroke-linecap="round" stroke-linejoin="round"/>
</g>
<g opacity="0.3">
<path fill-rule="evenodd" clip-rule="evenodd" d="M56.7084 162.049C54.421 161.101 49.7428 158.5 49.4112 154.551Z" fill="black" fill-opacity="0.01"/>
<path d="M56.7084 162.049C54.421 161.101 49.7428 158.5 49.4112 154.551" stroke="url(#paint28_linear_4578_2722)" stroke-width="3.78667" stroke-linecap="round" stroke-linejoin="round"/>
</g>
<g opacity="0.3">
<path fill-rule="evenodd" clip-rule="evenodd" d="M57.4971 152.382C59.5559 152.962 62.6093 152.434 65.1888 148.633Z" fill="black" fill-opacity="0.01"/>
<path d="M57.4971 152.382C59.5559 152.962 62.6093 152.434 65.1888 148.633" stroke="url(#paint29_linear_4578_2722)" stroke-width="3.78667" stroke-linecap="round" stroke-linejoin="round"/>
</g>
<g opacity="0.3">
<path fill-rule="evenodd" clip-rule="evenodd" d="M63.2166 122.981C64.558 121.923 67.1664 117.744 66.9638 114.102Z" fill="black" fill-opacity="0.01"/>
<path d="M63.2166 122.981C64.558 121.923 67.1664 117.744 66.9638 114.102" stroke="url(#paint30_linear_4578_2722)" stroke-width="3.78667" stroke-linecap="round" stroke-linejoin="round"/>
</g>
<path opacity="0.5" fill-rule="evenodd" clip-rule="evenodd" d="M52.9609 211.063L113.696 187.508H197.919L152.858 217.697" fill="url(#paint31_linear_4578_2722)"/>
<ellipse cx="158.278" cy="187.899" rx="40.2333" ry="3.157" fill="#8699BF"/>
<rect x="117.453" y="23.9336" width="89.3417" height="164.954" rx="44.6708" fill="url(#paint32_linear_4578_2722)"/>
<rect x="110.156" y="23.9336" width="89.3417" height="164.954" rx="44.6708" fill="url(#paint33_linear_4578_2722)"/>
<rect x="131.456" y="34.5859" width="46.9389" height="2.95969" rx="1.47985" fill="url(#paint34_linear_4578_2722)"/>
<ellipse cx="154.728" cy="177.049" rx="8.28333" ry="8.28715" fill="url(#paint35_linear_4578_2722)"/>
<g filter="url(#filter3_d_4578_2722)">
<rect x="113.903" y="47.6055" width="82.0444" height="117.598" rx="9.088" fill="white"/>
</g>
<mask id="mask0_4578_2722" style="mask-type:luminance" maskUnits="userSpaceOnUse" x="113" y="47" width="83" height="119">
<rect x="113.903" y="47.6055" width="82.0444" height="117.598" rx="9.088" fill="white"/>
</mask>
<g mask="url(#mask0_4578_2722)">
<g opacity="0.6">
<rect x="117.847" y="137.777" width="74.1555" height="22.4937" rx="11.2468" fill="url(#paint36_linear_4578_2722)"/>
<ellipse cx="129.089" cy="149.022" rx="8.28333" ry="8.28714" fill="#A1B8E3"/>
<rect x="140.331" y="141.723" width="45.9528" height="3.35432" rx="1.67716" fill="#A1B8E3"/>
<rect x="140.331" y="147.246" width="35.1055" height="3.35432" rx="1.67716" fill="#A1B8E3"/>
<rect opacity="0.5" x="140.331" y="153.957" width="13.0167" height="2.36775" rx="1.18388" fill="#A1B8E3"/>
</g>
<g opacity="0.6">
<rect x="117.847" y="110.551" width="74.1555" height="22.4937" rx="11.2468" fill="url(#paint37_linear_4578_2722)"/>
<ellipse cx="129.089" cy="121.795" rx="8.28333" ry="8.28714" fill="#A1B8E3"/>
<rect x="140.331" y="114.496" width="45.9528" height="3.35432" rx="1.67716" fill="#A1B8E3"/>
<rect x="140.331" y="120.02" width="35.1055" height="3.35431" rx="1.67716" fill="#A1B8E3"/>
<rect opacity="0.5" x="140.331" y="126.73" width="13.0167" height="2.36775" rx="1.18388" fill="#A1B8E3"/>
</g>
<g opacity="0.6">
<rect x="117.847" y="53.7227" width="74.1555" height="22.4937" rx="11.2468" fill="url(#paint38_linear_4578_2722)"/>
<ellipse cx="129.089" cy="64.9668" rx="8.28333" ry="8.28714" fill="#A1B8E3"/>
<rect x="140.331" y="57.668" width="45.9528" height="3.35432" rx="1.67716" fill="#A1B8E3"/>
<rect x="140.331" y="63.1914" width="35.1055" height="3.35432" rx="1.67716" fill="#A1B8E3"/>
<rect opacity="0.5" x="140.331" y="69.9023" width="13.0167" height="2.36776" rx="1.18388" fill="#A1B8E3"/>
</g>
</g>
<g filter="url(#filter4_d_4578_2722)">
<rect x="106.014" y="80.3633" width="74.1555" height="22.4937" rx="11.2468" fill="url(#paint39_linear_4578_2722)"/>
<ellipse cx="117.256" cy="91.6114" rx="8.28333" ry="8.28714" fill="#FFB417"/>
<rect x="128.497" y="84.3086" width="45.9528" height="3.35432" rx="1.67716" fill="#FFB417"/>
<rect x="128.497" y="89.8359" width="35.1055" height="3.35432" rx="1.67716" fill="#FFB417"/>
<rect opacity="0.5" x="128.497" y="96.543" width="13.0167" height="2.36776" rx="1.18388" fill="#FFB417"/>
</g>
<path opacity="0.5" fill-rule="evenodd" clip-rule="evenodd" d="M55.9702 230.907L135.986 225.77V225.77C134.133 227.421 131.821 228.469 129.358 228.775L70.8175 236.044" fill="url(#paint40_linear_4578_2722)"/>
<path opacity="0.5" fill-rule="evenodd" clip-rule="evenodd" d="M22.3735 223.156H101.329V223.156C99.9766 224.423 98.2121 225.159 96.3602 225.228L41.5514 227.289" fill="url(#paint41_linear_4578_2722)"/>
<path fill-rule="evenodd" clip-rule="evenodd" d="M80.9868 138.478C80.9868 142.004 78.0839 148.913 81.8693 150.705C85.6547 152.496 89.0022 143.192 89.0022 143.192C89.0022 143.192 88.7137 136.36 85.2915 136.36C81.8693 136.36 80.9868 134.952 80.9868 138.478Z" fill="url(#paint42_linear_4578_2722)"/>
<mask id="mask1_4578_2722" style="mask-type:luminance" maskUnits="userSpaceOnUse" x="79" y="136" width="11" height="15">
<path fill-rule="evenodd" clip-rule="evenodd" d="M80.9868 138.478C80.9868 142.004 78.0839 148.913 81.8693 150.705C85.6547 152.496 89.0022 143.192 89.0022 143.192C89.0022 143.192 88.7137 136.36 85.2915 136.36C81.8693 136.36 80.9868 134.952 80.9868 138.478Z" fill="white"/>
</mask>
<g mask="url(#mask1_4578_2722)">
<g opacity="0.5">
<path fill-rule="evenodd" clip-rule="evenodd" d="M80.7689 140.054C81.0742 140.675 85.2341 143.958 85.922 144.734C86.6099 145.511 86.7671 147.54 87.1621 147.33C87.5571 147.12 87.1621 141.168 87.1621 141.168C87.1621 141.168 80.4637 139.434 80.7689 140.054Z" fill="#3D82F0" style="mix-blend-mode:multiply"/>
</g>
</g>
<path fill-rule="evenodd" clip-rule="evenodd" d="M87.7576 218.427C87.694 220.248 87.1444 222.507 87.583 223.428C88.0217 224.349 90.3358 224.905 91.1046 224.932C91.8735 224.959 92.176 223.671 93.3468 224.38C94.5176 225.089 101.325 225.289 101.861 222.597C102.398 219.904 98.9479 219.784 97.4133 219.73C95.8787 219.676 94.2796 218.872 92.0688 216.851C89.8579 214.83 87.8212 216.606 87.7576 218.427Z" fill="url(#paint43_linear_4578_2722)"/>
<path d="M96.325 221.062C96.7301 220.155 95.6265 219.105 95.3464 219.07" stroke="white" stroke-width="1.51467" stroke-linecap="round"/>
<path d="M98.1739 221.037C98.307 219.953 97.5432 219.573 97.2377 219.536" stroke="white" stroke-width="1.51467" stroke-linecap="round"/>
<path fill-rule="evenodd" clip-rule="evenodd" d="M121.856 222.256C122.014 224.072 121.744 226.381 122.292 227.241C122.839 228.102 125.204 228.372 125.97 228.305C126.737 228.238 126.88 226.923 128.128 227.484C129.377 228.045 136.158 227.414 136.362 224.676C136.567 221.938 133.128 222.239 131.598 222.373C130.068 222.506 128.383 221.903 125.943 220.167C123.502 218.43 121.697 220.441 121.856 222.256Z" fill="url(#paint44_linear_4578_2722)"/>
<path d="M130.68 223.831C130.972 222.88 129.748 221.973 129.466 221.973" stroke="white" stroke-width="1.51467" stroke-linecap="round"/>
<path d="M132.512 223.58C132.512 222.488 131.708 222.204 131.4 222.204" stroke="white" stroke-width="1.51467" stroke-linecap="round"/>
<path fill-rule="evenodd" clip-rule="evenodd" d="M115.673 157.035C115.673 157.035 123.108 184.289 124.076 190.49C125.044 196.691 127.412 217.653 127.078 221.033C125.46 222.684 122.545 221.695 122.038 221.393C121.53 221.09 118.402 203.844 115.673 197.153C112.944 190.463 106.803 184.306 102.756 177.574C102.756 181.956 99.6314 193.68 99.6314 193.68C99.6314 193.68 95.075 214.385 93.5245 217.736C92.7887 218.925 89.0746 218.053 87.634 217.736C87.634 214.596 90.7401 198.731 90.7401 193.223C90.7401 187.715 89.8811 177.734 89.5602 173.642C89.2392 169.55 88.4551 161.612 89.5602 157.035C92.3615 157.035 115.673 157.035 115.673 157.035Z" fill="url(#paint45_linear_4578_2722)"/>
<mask id="mask2_4578_2722" style="mask-type:luminance" maskUnits="userSpaceOnUse" x="87" y="157" width="41" height="65">
<path fill-rule="evenodd" clip-rule="evenodd" d="M115.673 157.035C115.673 157.035 123.108 184.289 124.076 190.49C125.044 196.691 127.412 217.653 127.078 221.033C125.46 222.684 122.545 221.695 122.038 221.393C121.53 221.09 118.402 203.844 115.673 197.153C112.944 190.463 106.803 184.306 102.756 177.574C102.756 181.956 99.6314 193.68 99.6314 193.68C99.6314 193.68 95.075 214.385 93.5245 217.736C92.7887 218.925 89.0746 218.053 87.634 217.736C87.634 214.596 90.7401 198.731 90.7401 193.223C90.7401 187.715 89.8811 177.734 89.5602 173.642C89.2392 169.55 88.4551 161.612 89.5602 157.035C92.3615 157.035 115.673 157.035 115.673 157.035Z" fill="white"/>
</mask>
<g mask="url(#mask2_4578_2722)">
<g opacity="0.5">
<path fill-rule="evenodd" clip-rule="evenodd" d="M98.8347 196.863C98.8347 194.195 100.209 172.398 100.524 173.292C100.84 174.187 103.297 179.017 103.297 179.017C103.297 179.017 98.8347 199.531 98.8347 196.863Z" fill="#A1B8E3" style="mix-blend-mode:multiply"/>
</g>
<path d="M100.599 173.305C100.983 174.919 102.465 177.163 103.149 178.5" stroke="white" stroke-width="1.51467" stroke-linecap="round"/>
<g opacity="0.5">
<path fill-rule="evenodd" clip-rule="evenodd" d="M91.2808 161.589C93.0188 162.524 99.8248 166.504 108.595 164.909C112.928 164.121 115.715 163.089 116.965 161.589C116.965 160.849 115.914 157.74 115.621 156.55C115.327 155.361 89.1524 160.443 91.2808 161.589Z" fill="url(#paint46_linear_4578_2722)" style="mix-blend-mode:multiply"/>
</g>
</g>
<path fill-rule="evenodd" clip-rule="evenodd" d="M102.523 99.1094C102.523 99.1094 103.528 101.056 105.229 101.883C106.931 102.71 107.781 103.114 107.781 103.114L107.058 105.921C107.058 105.921 108.406 110.049 107.781 111.441C107.156 112.833 105.229 113.758 104.108 114.999C102.986 116.24 101.949 120.449 101.949 120.449H94.5563L94.2216 114.999C94.2216 114.999 92.25 107.133 95.595 103.114C98.94 99.0947 102.523 99.1094 102.523 99.1094Z" fill="url(#paint47_linear_4578_2722)"/>
<mask id="mask3_4578_2722" style="mask-type:luminance" maskUnits="userSpaceOnUse" x="93" y="99" width="15" height="22">
<path fill-rule="evenodd" clip-rule="evenodd" d="M102.523 99.1094C102.523 99.1094 103.528 101.056 105.229 101.883C106.931 102.71 107.781 103.114 107.781 103.114L107.058 105.921C107.058 105.921 108.406 110.049 107.781 111.441C107.156 112.833 105.229 113.758 104.108 114.999C102.986 116.24 101.949 120.449 101.949 120.449H94.5563L94.2216 114.999C94.2216 114.999 92.25 107.133 95.595 103.114C98.94 99.0947 102.523 99.1094 102.523 99.1094Z" fill="white"/>
</mask>
<g mask="url(#mask3_4578_2722)">
<g opacity="0.5">
<path fill-rule="evenodd" clip-rule="evenodd" d="M105.029 114.255C103.163 114.255 100.252 112.602 99.6913 112.037C99.131 111.472 104.356 117.582 103.92 118.555C103.576 119.323 102.348 119.558 103.122 119.558C105.917 119.558 106.895 114.255 105.029 114.255Z" fill="#3D82F0" style="mix-blend-mode:multiply"/>
</g>
</g>
<path fill-rule="evenodd" clip-rule="evenodd" d="M94.2217 114.762C87.7036 108.667 82.5424 103.466 86.9936 96.2175C91.4448 88.9694 101.802 86.5328 103.738 95.3435C103.738 99.1239 100.948 101.143 100.948 101.143C100.948 101.143 100.426 102.206 101.802 103.333C103.178 104.46 101.802 105.392 101.802 105.392C101.802 105.392 99.0844 103.643 98.3748 105.972C97.6652 108.301 100.284 109.134 100.284 109.717C101.187 111.859 99.324 113.818 99.324 113.818C99.324 113.818 98.3702 114.762 94.2217 114.762Z" fill="url(#paint48_linear_4578_2722)"/>
<path fill-rule="evenodd" clip-rule="evenodd" d="M87.4986 122.984C87.4986 122.984 80.5212 135.23 79.6793 137.925C78.8375 140.619 87.4986 142.178 87.4986 142.178L91.1129 126.774L87.4986 122.984Z" fill="url(#paint49_linear_4578_2722)"/>
<path fill-rule="evenodd" clip-rule="evenodd" d="M102.572 118.772C102.572 118.772 107.827 120.159 110.924 123.825C114.021 127.492 113.331 138.522 114.208 145.086C115.085 151.651 118.901 156.423 113.006 160.128C107.111 163.832 90.4442 162.991 89.0812 160.128C87.7182 157.264 86.1646 139.665 86.1646 139.665C86.1646 139.665 86.1646 123.825 88.0263 122.49C89.8881 121.155 94.2343 118.574 94.2343 118.574C94.2343 118.574 94.1369 118.967 96.2334 119.356C98.33 119.745 102.572 118.772 102.572 118.772Z" fill="#D6E3FA"/>
<mask id="mask4_4578_2722" style="mask-type:luminance" maskUnits="userSpaceOnUse" x="86" y="118" width="31" height="45">
<path fill-rule="evenodd" clip-rule="evenodd" d="M102.572 118.772C102.572 118.772 107.827 120.159 110.924 123.825C114.021 127.492 113.331 138.522 114.208 145.086C115.085 151.651 118.901 156.423 113.006 160.128C107.111 163.832 90.4442 162.991 89.0812 160.128C87.7182 157.264 86.1646 139.665 86.1646 139.665C86.1646 139.665 86.1646 123.825 88.0263 122.49C89.8881 121.155 94.2343 118.574 94.2343 118.574C94.2343 118.574 94.1369 118.967 96.2334 119.356C98.33 119.745 102.572 118.772 102.572 118.772Z" fill="white"/>
</mask>
<g mask="url(#mask4_4578_2722)">
<path opacity="0.5" fill-rule="evenodd" clip-rule="evenodd" d="M106.937 131.301C106.937 131.301 109.771 144.557 111.477 147.041C113.183 149.526 114.292 157.044 115.657 157.941C117.023 158.838 118.984 148.581 118.003 145.07C117.023 141.558 112.602 132.957 112.602 132.957L106.937 131.301Z" fill="url(#paint50_linear_4578_2722)"/>
<path opacity="0.5" fill-rule="evenodd" clip-rule="evenodd" d="M95.4825 119.484C96.7441 120.321 100.031 120.774 102.794 120.774C105.557 120.774 106.422 120.803 107.744 120.401C109.066 119.998 108.553 119.484 107.744 119.484C106.934 119.484 104.423 118.893 103.072 118.893C101.721 118.893 94.2209 118.647 95.4825 119.484Z" fill="url(#paint51_linear_4578_2722)"/>
</g>
<path fill-rule="evenodd" clip-rule="evenodd" d="M93.9953 118.773C93.9953 118.773 93.8328 116.745 93.8328 116.091C93.8328 115.437 99.2759 116.361 103.193 116.727C103.618 118.359 103.543 118.467 103.543 118.773C103.543 118.926 102.565 120.238 97.3015 119.813C95.3803 119.657 93.9953 118.773 93.9953 118.773Z" fill="#E1ECFF"/>
<ellipse cx="5.34074" cy="2.12087" rx="5.34074" ry="2.12087" transform="matrix(0.406581 -0.913615 0.913476 0.406893 115.789 136.207)" fill="#A1B8E3"/>
<path fill-rule="evenodd" clip-rule="evenodd" d="M119.825 126.575L125.329 128.842C125.329 128.842 130.211 115.81 130.507 114.118C130.803 112.427 129.491 110.04 129.279 109.189C129.067 108.338 129.101 106.336 129.694 105.603C130.286 104.87 130.443 105.132 130.885 105.021C131.328 104.911 133.955 99.2744 134.253 98.5662C134.551 97.858 135.082 97.4137 135.622 97.6497C136.162 97.8856 136.112 98.5155 135.899 99.0727C135.685 99.6298 134.487 102.756 134.623 103.301C134.758 103.845 136.869 104.549 137.458 104.91C138.047 105.272 139.05 106.46 138.548 108.18C138.047 109.899 135.734 113.015 135.899 113.678C136.064 114.341 133.728 125.573 132.984 130.065C132.241 134.557 131.269 137.708 127.474 137.448C123.678 137.188 115.813 132.966 115.813 132.966C115.813 132.966 116.328 129.686 117.31 128.449C118.293 127.212 119.825 126.575 119.825 126.575Z" fill="url(#paint52_linear_4578_2722)"/>
<mask id="mask5_4578_2722" style="mask-type:luminance" maskUnits="userSpaceOnUse" x="115" y="97" width="24" height="41">
<path fill-rule="evenodd" clip-rule="evenodd" d="M119.825 126.575L125.329 128.842C125.329 128.842 130.211 115.81 130.507 114.118C130.803 112.427 129.491 110.04 129.279 109.189C129.067 108.338 129.101 106.336 129.694 105.603C130.286 104.87 130.443 105.132 130.885 105.021C131.328 104.911 133.955 99.2744 134.253 98.5662C134.551 97.858 135.082 97.4137 135.622 97.6497C136.162 97.8856 136.112 98.5155 135.899 99.0727C135.685 99.6298 134.487 102.756 134.623 103.301C134.758 103.845 136.869 104.549 137.458 104.91C138.047 105.272 139.05 106.46 138.548 108.18C138.047 109.899 135.734 113.015 135.899 113.678C136.064 114.341 133.728 125.573 132.984 130.065C132.241 134.557 131.269 137.708 127.474 137.448C123.678 137.188 115.813 132.966 115.813 132.966C115.813 132.966 116.328 129.686 117.31 128.449C118.293 127.212 119.825 126.575 119.825 126.575Z" fill="white"/>
</mask>
<g mask="url(#mask5_4578_2722)">
<g opacity="0.5">
<path fill-rule="evenodd" clip-rule="evenodd" d="M121.631 127.175C121.631 127.175 120.464 134.003 121.197 136.012C121.929 138.021 117.914 135.186 117.914 135.186C117.914 135.186 117.992 132.26 118.609 130.93C119.226 129.601 121.631 127.175 121.631 127.175Z" fill="#3D82F0" style="mix-blend-mode:multiply"/>
</g>
<path d="M125.213 128.676C125.523 128.818 126.111 129.04 126.637 129.769" stroke="#223762" stroke-width="1.51467" stroke-linecap="round"/>
</g>
<path fill-rule="evenodd" clip-rule="evenodd" d="M117.848 137.125C118.468 134.022 119.362 129.751 121.844 127.195C112.987 123.373 110.196 122.019 107.411 120.829C104.626 119.639 102.092 127.477 107.411 131.377C112.729 135.276 116.37 136.472 117.848 137.125Z" fill="url(#paint53_linear_4578_2722)"/>
<path d="M152.836 234.68H238.456V234.68C238.456 237.623 236.071 240.008 233.128 240.008H158.165C155.222 240.008 152.836 237.623 152.836 234.68V234.68Z" fill="#CAD7F1"/>
<path fill-rule="evenodd" clip-rule="evenodd" d="M162.924 218.246H228.755C230.919 218.246 233.227 219.707 233.91 221.51L238.484 233.585C239.167 235.388 237.63 236.849 235.052 236.849H156.626C154.048 236.849 152.512 235.388 153.194 233.585L157.769 221.51C158.452 219.707 160.76 218.246 162.924 218.246Z" fill="#EBF1FD"/>
<mask id="mask6_4578_2722" style="mask-type:luminance" maskUnits="userSpaceOnUse" x="153" y="218" width="86" height="19">
<path fill-rule="evenodd" clip-rule="evenodd" d="M162.924 218.246H228.755C230.919 218.246 233.227 219.707 233.91 221.51L238.484 233.585C239.167 235.388 237.63 236.849 235.052 236.849H156.626C154.048 236.849 152.512 235.388 153.194 233.585L157.769 221.51C158.452 219.707 160.76 218.246 162.924 218.246Z" fill="white"/>
</mask>
<g mask="url(#mask6_4578_2722)">
<path fill-rule="evenodd" clip-rule="evenodd" d="M165.824 234.395C171.124 234.395 175.971 231.326 176.65 227.541C177.329 223.756 174.102 220.688 169.443 220.688C164.784 220.688 159.937 223.756 158.618 227.541C157.298 231.326 160.525 234.395 165.824 234.395Z" fill="#CAD7F1"/>
<path fill-rule="evenodd" clip-rule="evenodd" d="M182.598 221.578H226.339C227.289 221.578 228.259 222.199 228.504 222.965C228.75 223.731 228.157 224.352 227.18 224.352H182.232C181.255 224.352 180.556 223.731 180.67 222.965C180.784 222.199 181.648 221.578 182.598 221.578Z" fill="#CAD7F1"/>
<path fill-rule="evenodd" clip-rule="evenodd" d="M181.892 226.238H215.977C216.971 226.238 217.907 226.859 218.067 227.625C218.228 228.391 217.531 229.012 216.511 229.012H181.526C180.506 229.012 179.772 228.391 179.886 227.625C180 226.859 180.898 226.238 181.892 226.238Z" fill="#CAD7F1"/>
<path opacity="0.5" fill-rule="evenodd" clip-rule="evenodd" d="M180.778 231.789H192.814C193.552 231.789 194.144 232.227 194.135 232.768C194.126 233.309 193.51 233.747 192.758 233.747H180.509C179.758 233.747 179.214 233.309 179.294 232.768C179.375 232.227 180.039 231.789 180.778 231.789Z" fill="#CAD7F1"/>
</g>
<g filter="url(#filter5_d_4578_2722)">
<path d="M149.708 227.199L235.315 228.694V228.694C235.264 231.637 232.837 233.98 229.895 233.929L154.943 232.62C152.001 232.569 149.657 230.142 149.708 227.199V227.199Z" fill="#CAD7F1"/>
<path fill-rule="evenodd" clip-rule="evenodd" d="M160.081 210.95L225.902 212.099C228.066 212.137 230.348 213.639 230.999 215.453L235.362 227.606C236.013 229.421 234.452 230.855 231.874 230.81L153.46 229.44C150.882 229.395 149.371 227.907 150.085 226.117L154.87 214.123C155.584 212.333 157.917 210.912 160.081 210.95Z" fill="#EBF1FD"/>
<mask id="mask7_4578_2722" style="mask-type:luminance" maskUnits="userSpaceOnUse" x="149" y="210" width="87" height="21">
<path fill-rule="evenodd" clip-rule="evenodd" d="M160.081 210.95L225.902 212.099C228.066 212.137 230.348 213.639 230.999 215.453L235.362 227.606C236.013 229.421 234.452 230.855 231.874 230.81L153.46 229.44C150.882 229.395 149.371 227.907 150.085 226.117L154.87 214.123C155.584 212.333 157.917 210.912 160.081 210.95Z" fill="white"/>
</mask>
<g mask="url(#mask7_4578_2722)">
<path fill-rule="evenodd" clip-rule="evenodd" d="M162.699 227.145C167.998 227.238 172.898 224.254 173.642 220.481C174.387 216.709 171.214 213.584 166.556 213.503C161.898 213.421 156.998 216.405 155.613 220.166C154.228 223.928 157.4 227.052 162.699 227.145Z" fill="#CAD7F1"/>
<path fill-rule="evenodd" clip-rule="evenodd" d="M179.694 214.62L223.428 215.384C224.378 215.4 225.337 216.038 225.569 216.808C225.801 217.578 225.197 218.189 224.221 218.172L179.279 217.387C178.303 217.37 177.614 216.737 177.742 215.973C177.869 215.209 178.743 214.603 179.694 214.62Z" fill="#CAD7F1"/>
<path fill-rule="evenodd" clip-rule="evenodd" d="M178.907 219.27L212.987 219.865C213.981 219.882 214.905 220.519 215.053 221.288C215.2 222.057 214.492 222.666 213.472 222.648L178.492 222.037C177.473 222.019 176.749 221.385 176.877 220.621C177.004 219.857 177.913 219.252 178.907 219.27Z" fill="#CAD7F1"/>
<path opacity="0.5" fill-rule="evenodd" clip-rule="evenodd" d="M177.696 224.803L189.73 225.014C190.468 225.026 191.052 225.475 191.034 226.016C191.016 226.556 190.392 226.984 189.64 226.97L177.393 226.757C176.642 226.743 176.105 226.296 176.195 225.756C176.285 225.217 176.957 224.79 177.696 224.803Z" fill="#CAD7F1"/>
</g>
</g>
<g filter="url(#filter6_d_4578_2722)">
<path d="M154.716 222.371L240.284 219.382V219.382C240.386 222.323 238.085 224.79 235.144 224.893L160.227 227.51C157.286 227.613 154.819 225.312 154.716 222.371V222.371Z" fill="#CAD7F1"/>
<path fill-rule="evenodd" clip-rule="evenodd" d="M164.224 205.596L230.015 203.298C232.178 203.222 234.535 204.602 235.281 206.379L240.274 218.288C241.019 220.065 239.534 221.579 236.958 221.669L158.579 224.408C156.003 224.498 154.416 223.091 155.036 221.266L159.186 209.038C159.806 207.212 162.061 205.672 164.224 205.596Z" fill="#EBF1FD"/>
<mask id="mask8_4578_2722" style="mask-type:luminance" maskUnits="userSpaceOnUse" x="154" y="203" width="87" height="22">
<path fill-rule="evenodd" clip-rule="evenodd" d="M164.224 205.596L230.015 203.298C232.178 203.222 234.535 204.602 235.281 206.379L240.274 218.288C241.019 220.065 239.534 221.579 236.958 221.669L158.579 224.408C156.003 224.498 154.416 223.091 155.036 221.266L159.186 209.038C159.806 207.212 162.061 205.672 164.224 205.596Z" fill="white"/>
</mask>
<g mask="url(#mask8_4578_2722)">
<path fill-rule="evenodd" clip-rule="evenodd" d="M167.687 221.636C172.983 221.451 177.72 218.215 178.266 214.409C178.812 210.602 175.481 207.648 170.824 207.811C166.168 207.974 161.432 211.209 160.245 215.038C159.058 218.867 162.39 221.821 167.687 221.636Z" fill="#CAD7F1"/>
<path fill-rule="evenodd" clip-rule="evenodd" d="M184.003 208.237L227.717 206.71C228.667 206.677 229.657 207.263 229.929 208.02C230.201 208.777 229.631 209.419 228.654 209.453L183.734 211.022C182.757 211.056 182.037 210.46 182.124 209.69C182.212 208.921 183.053 208.27 184.003 208.237Z" fill="#CAD7F1"/>
<path fill-rule="evenodd" clip-rule="evenodd" d="M183.46 212.926L217.524 211.736C218.518 211.701 219.475 212.289 219.662 213.049C219.849 213.809 219.174 214.454 218.155 214.489L183.191 215.711C182.171 215.746 181.416 215.151 181.503 214.382C181.591 213.612 182.467 212.96 183.46 212.926Z" fill="#CAD7F1"/>
<path opacity="0.5" fill-rule="evenodd" clip-rule="evenodd" d="M182.54 218.51L194.568 218.09C195.306 218.064 195.913 218.482 195.923 219.023C195.933 219.563 195.333 220.023 194.581 220.049L182.34 220.477C181.589 220.503 181.03 220.084 181.091 219.541C181.153 218.998 181.802 218.536 182.54 218.51Z" fill="#CAD7F1"/>
</g>
</g>
<path d="M146.839 214.5H232.425V214.5C232.425 217.462 230.024 219.864 227.062 219.864H152.203C149.24 219.864 146.839 217.462 146.839 214.5V214.5Z" fill="#C6D5EF"/>
<path fill-rule="evenodd" clip-rule="evenodd" d="M156.922 197.965H222.728C224.891 197.965 227.198 199.436 227.881 201.25L232.453 213.406C233.136 215.22 231.6 216.691 229.023 216.691H150.627C148.05 216.691 146.514 215.22 147.197 213.406L151.769 201.25C152.452 199.436 154.759 197.965 156.922 197.965Z" fill="#EBF1FD"/>
<mask id="mask9_4578_2722" style="mask-type:luminance" maskUnits="userSpaceOnUse" x="147" y="197" width="86" height="20">
<path fill-rule="evenodd" clip-rule="evenodd" d="M156.922 197.965H222.728C224.891 197.965 227.198 199.436 227.881 201.25L232.453 213.406C233.136 215.22 231.6 216.691 229.023 216.691H150.627C148.05 216.691 146.514 215.22 147.197 213.406L151.769 201.25C152.452 199.436 154.759 197.965 156.922 197.965Z" fill="white"/>
</mask>
<g mask="url(#mask9_4578_2722)">
<path opacity="0.5" fill-rule="evenodd" clip-rule="evenodd" d="M159.822 214.22C165.12 214.22 169.964 211.131 170.643 207.321C171.321 203.511 168.096 200.422 163.439 200.422C158.781 200.422 153.937 203.511 152.618 207.321C151.299 211.131 154.524 214.22 159.822 214.22Z" fill="#AABFE5"/>
<path opacity="0.5" fill-rule="evenodd" clip-rule="evenodd" d="M176.589 201.316H220.312C221.263 201.316 222.232 201.942 222.477 202.713C222.723 203.484 222.13 204.109 221.153 204.109H176.223C175.246 204.109 174.547 203.484 174.662 202.713C174.776 201.942 175.639 201.316 176.589 201.316Z" fill="#AABFE5"/>
<path opacity="0.5" fill-rule="evenodd" clip-rule="evenodd" d="M175.883 206.008H209.955C210.949 206.008 211.884 206.633 212.045 207.404C212.205 208.175 211.508 208.8 210.489 208.8H175.517C174.498 208.8 173.763 208.175 173.878 207.404C173.992 206.633 174.89 206.008 175.883 206.008Z" fill="#AABFE5"/>
<path opacity="0.3" fill-rule="evenodd" clip-rule="evenodd" d="M174.769 211.598H186.8C187.539 211.598 188.13 212.039 188.121 212.583C188.113 213.128 187.496 213.569 186.745 213.569H174.501C173.749 213.569 173.206 213.128 173.286 212.583C173.367 212.039 174.031 211.598 174.769 211.598Z" fill="#A1B8E3"/>
</g>
<defs>
<filter id="filter0_i_4578_2722" x="49.9365" y="41.0223" width="103.078" height="64.3488" filterUnits="userSpaceOnUse" color-interpolation-filters="sRGB">
<feFlood flood-opacity="0" result="BackgroundImageFix"/>
<feBlend mode="normal" in="SourceGraphic" in2="BackgroundImageFix" result="shape"/>
<feColorMatrix in="SourceAlpha" type="matrix" values="0 0 0 0 0 0 0 0 0 0 0 0 0 0 0 0 0 0 127 0" result="hardAlpha"/>
<feOffset dy="-10.6027"/>
<feGaussianBlur stdDeviation="9.46667"/>
<feComposite in2="hardAlpha" operator="arithmetic" k2="-1" k3="1"/>
<feColorMatrix type="matrix" values="0 0 0 0 0.788056 0 0 0 0 0.827193 0 0 0 0 0.89764 0 0 0 0.337126 0"/>
<feBlend mode="normal" in2="shape" result="effect1_innerShadow_4578_2722"/>
</filter>
<filter id="filter1_i_4578_2722" x="138.315" y="12.3661" width="101.849" height="65.837" filterUnits="userSpaceOnUse" color-interpolation-filters="sRGB">
<feFlood flood-opacity="0" result="BackgroundImageFix"/>
<feBlend mode="normal" in="SourceGraphic" in2="BackgroundImageFix" result="shape"/>
<feColorMatrix in="SourceAlpha" type="matrix" values="0 0 0 0 0 0 0 0 0 0 0 0 0 0 0 0 0 0 127 0" result="hardAlpha"/>
<feOffset dy="-10.6027"/>
<feGaussianBlur stdDeviation="9.46667"/>
<feComposite in2="hardAlpha" operator="arithmetic" k2="-1" k3="1"/>
<feColorMatrix type="matrix" values="0 0 0 0 0.788056 0 0 0 0 0.827193 0 0 0 0 0.89764 0 0 0 0.337126 0"/>
<feBlend mode="normal" in2="shape" result="effect1_innerShadow_4578_2722"/>
</filter>
<filter id="filter2_i_4578_2722" x="36.6469" y="98.5497" width="41.702" height="72.501" filterUnits="userSpaceOnUse" color-interpolation-filters="sRGB">
<feFlood flood-opacity="0" result="BackgroundImageFix"/>
<feBlend mode="normal" in="SourceGraphic" in2="BackgroundImageFix" result="shape"/>
<feColorMatrix in="SourceAlpha" type="matrix" values="0 0 0 0 0 0 0 0 0 0 0 0 0 0 0 0 0 0 127 0" result="hardAlpha"/>
<feOffset dx="-6.05867" dy="-4.544"/>
<feGaussianBlur stdDeviation="11.36"/>
<feComposite in2="hardAlpha" operator="arithmetic" k2="-1" k3="1"/>
<feColorMatrix type="matrix" values="0 0 0 0 0.269084 0 0 0 0 0.79451 0 0 0 0 0.470313 0 0 0 0.5 0"/>
<feBlend mode="normal" in2="shape" result="effect1_innerShadow_4578_2722"/>
</filter>
<filter id="filter3_d_4578_2722" x="-8.78517" y="-75.0825" width="327.42" height="362.974" filterUnits="userSpaceOnUse" color-interpolation-filters="sRGB">
<feFlood flood-opacity="0" result="BackgroundImageFix"/>
<feColorMatrix in="SourceAlpha" type="matrix" values="0 0 0 0 0 0 0 0 0 0 0 0 0 0 0 0 0 0 127 0" result="hardAlpha"/>
<feOffset/>
<feGaussianBlur stdDeviation="61.344"/>
<feColorMatrix type="matrix" values="0 0 0 0 1 0 0 0 0 1 0 0 0 0 1 0 0 0 1 0"/>
<feBlend mode="normal" in2="BackgroundImageFix" result="effect1_dropShadow_4578_2722"/>
<feBlend mode="normal" in="SourceGraphic" in2="effect1_dropShadow_4578_2722" result="shape"/>
</filter>
<filter id="filter4_d_4578_2722" x="106.014" y="80.3633" width="87.0302" height="35.3669" filterUnits="userSpaceOnUse" color-interpolation-filters="sRGB">
<feFlood flood-opacity="0" result="BackgroundImageFix"/>
<feColorMatrix in="SourceAlpha" type="matrix" values="0 0 0 0 0 0 0 0 0 0 0 0 0 0 0 0 0 0 127 0" result="hardAlpha"/>
<feOffset dx="12.8747" dy="12.8747"/>
<feColorMatrix type="matrix" values="0 0 0 0 1 0 0 0 0 0.706613 0 0 0 0 0.0893703 0 0 0 0.173347 0"/>
<feBlend mode="normal" in2="BackgroundImageFix" result="effect1_dropShadow_4578_2722"/>
<feBlend mode="normal" in="SourceGraphic" in2="effect1_dropShadow_4578_2722" result="shape"/>
</filter>
<filter id="filter5_d_4578_2722" x="132.289" y="203.376" width="111.551" height="48.7298" filterUnits="userSpaceOnUse" color-interpolation-filters="sRGB">
<feFlood flood-opacity="0" result="BackgroundImageFix"/>
<feColorMatrix in="SourceAlpha" type="matrix" values="0 0 0 0 0 0 0 0 0 0 0 0 0 0 0 0 0 0 127 0" result="hardAlpha"/>
<feOffset dx="-4.544" dy="5.30133"/>
<feGaussianBlur stdDeviation="6.43733"/>
<feColorMatrix type="matrix" values="0 0 0 0 0.260846 0 0 0 0 0.436705 0 0 0 0 0.80195 0 0 0 0.186 0"/>
<feBlend mode="normal" in2="BackgroundImageFix" result="effect1_dropShadow_4578_2722"/>
<feBlend mode="normal" in="SourceGraphic" in2="effect1_dropShadow_4578_2722" result="shape"/>
</filter>
<filter id="filter6_d_4578_2722" x="137.297" y="195.72" width="111.499" height="49.9681" filterUnits="userSpaceOnUse" color-interpolation-filters="sRGB">
<feFlood flood-opacity="0" result="BackgroundImageFix"/>
<feColorMatrix in="SourceAlpha" type="matrix" values="0 0 0 0 0 0 0 0 0 0 0 0 0 0 0 0 0 0 127 0" result="hardAlpha"/>
<feOffset dx="-4.544" dy="5.30133"/>
<feGaussianBlur stdDeviation="6.43733"/>
<feColorMatrix type="matrix" values="0 0 0 0 0.260846 0 0 0 0 0.436705 0 0 0 0 0.80195 0 0 0 0.186 0"/>
<feBlend mode="normal" in2="BackgroundImageFix" result="effect1_dropShadow_4578_2722"/>
<feBlend mode="normal" in="SourceGraphic" in2="effect1_dropShadow_4578_2722" result="shape"/>
</filter>
<linearGradient id="paint0_linear_4578_2722" x1="118.456" y1="98.2909" x2="123.903" y2="61.6753" gradientUnits="userSpaceOnUse">
<stop stop-color="#ECF1FF"/>
<stop offset="1" stop-color="white"/>
</linearGradient>
<linearGradient id="paint1_linear_4578_2722" x1="205.954" y1="70.0123" x2="211.556" y2="33.1748" gradientUnits="userSpaceOnUse">
<stop stop-color="#ECF1FF"/>
<stop offset="1" stop-color="white"/>
</linearGradient>
<linearGradient id="paint2_linear_4578_2722" x1="482.525" y1="156.784" x2="481.429" y2="230.3" gradientUnits="userSpaceOnUse">
<stop stop-color="white"/>
<stop offset="1" stop-color="#D6E3FA"/>
</linearGradient>
<linearGradient id="paint3_linear_4578_2722" x1="224.933" y1="125.059" x2="224.933" y2="182.161" gradientUnits="userSpaceOnUse">
<stop stop-color="#CFDDF3"/>
<stop offset="1" stop-color="#A1B8E3"/>
</linearGradient>
<linearGradient id="paint4_linear_4578_2722" x1="9.29355" y1="-21.3767" x2="-5.52177" y2="-17.9146" gradientUnits="userSpaceOnUse">
<stop stop-color="#CFDDF3"/>
<stop offset="1" stop-color="#A1B8E3"/>
</linearGradient>
<linearGradient id="paint5_linear_4578_2722" x1="9.29675" y1="-21.3693" x2="-5.52261" y2="-17.9039" gradientUnits="userSpaceOnUse">
<stop stop-color="#CFDDF3"/>
<stop offset="1" stop-color="#A1B8E3"/>
</linearGradient>
<linearGradient id="paint6_linear_4578_2722" x1="9.29676" y1="-21.3693" x2="-5.52262" y2="-17.9038" gradientUnits="userSpaceOnUse">
<stop stop-color="#CFDDF3"/>
<stop offset="1" stop-color="#A1B8E3"/>
</linearGradient>
<linearGradient id="paint7_linear_4578_2722" x1="9.29676" y1="-21.3693" x2="-5.52262" y2="-17.9039" gradientUnits="userSpaceOnUse">
<stop stop-color="#CFDDF3"/>
<stop offset="1" stop-color="#A1B8E3"/>
</linearGradient>
<linearGradient id="paint8_linear_4578_2722" x1="9.29375" y1="-21.3762" x2="-5.52182" y2="-17.9139" gradientUnits="userSpaceOnUse">
<stop stop-color="#CFDDF3"/>
<stop offset="1" stop-color="#A1B8E3"/>
</linearGradient>
<linearGradient id="paint9_linear_4578_2722" x1="9.29432" y1="-21.3749" x2="-5.52198" y2="-17.912" gradientUnits="userSpaceOnUse">
<stop stop-color="#CFDDF3"/>
<stop offset="1" stop-color="#A1B8E3"/>
</linearGradient>
<linearGradient id="paint10_linear_4578_2722" x1="9.29477" y1="-21.3739" x2="-5.52209" y2="-17.9105" gradientUnits="userSpaceOnUse">
<stop stop-color="#CFDDF3"/>
<stop offset="1" stop-color="#A1B8E3"/>
</linearGradient>
<linearGradient id="paint11_linear_4578_2722" x1="13.3593" y1="109.464" x2="62.6478" y2="133.246" gradientUnits="userSpaceOnUse">
<stop stop-color="#CFDDF3"/>
<stop offset="1" stop-color="#7FA1E0"/>
</linearGradient>
<linearGradient id="paint12_linear_4578_2722" x1="40.0044" y1="131.5" x2="40.0044" y2="148.095" gradientUnits="userSpaceOnUse">
<stop stop-color="#CFDDF3"/>
<stop offset="1" stop-color="#A1B8E3"/>
</linearGradient>
<linearGradient id="paint13_linear_4578_2722" x1="34.0771" y1="122.059" x2="34.0771" y2="131.993" gradientUnits="userSpaceOnUse">
<stop stop-color="#CFDDF3"/>
<stop offset="1" stop-color="#A1B8E3"/>
</linearGradient>
<linearGradient id="paint14_linear_4578_2722" x1="29.7188" y1="104.848" x2="29.7188" y2="188.423" gradientUnits="userSpaceOnUse">
<stop stop-color="#CFDDF3"/>
<stop offset="1" stop-color="#A1B8E3"/>
</linearGradient>
<linearGradient id="paint15_linear_4578_2722" x1="409.301" y1="234.573" x2="409.123" y2="110.046" gradientUnits="userSpaceOnUse">
<stop stop-color="white"/>
<stop offset="1" stop-color="#D6E3FA"/>
</linearGradient>
<linearGradient id="paint16_linear_4578_2722" x1="236.664" y1="142.035" x2="223.425" y2="182.762" gradientUnits="userSpaceOnUse">
<stop stop-color="#CFDDF3"/>
<stop offset="1" stop-color="#A1B8E3"/>
</linearGradient>
<linearGradient id="paint17_linear_4578_2722" x1="7.0008" y1="-16.0303" x2="-4.15428" y2="-13.4117" gradientUnits="userSpaceOnUse">
<stop stop-color="#CFDDF3"/>
<stop offset="1" stop-color="#A1B8E3"/>
</linearGradient>
<linearGradient id="paint18_linear_4578_2722" x1="7.00187" y1="-16.0279" x2="-4.15456" y2="-13.4081" gradientUnits="userSpaceOnUse">
<stop stop-color="#CFDDF3"/>
<stop offset="1" stop-color="#A1B8E3"/>
</linearGradient>
<linearGradient id="paint19_linear_4578_2722" x1="7.00196" y1="-16.0276" x2="-4.15458" y2="-13.4078" gradientUnits="userSpaceOnUse">
<stop stop-color="#CFDDF3"/>
<stop offset="1" stop-color="#A1B8E3"/>
</linearGradient>
<linearGradient id="paint20_linear_4578_2722" x1="7.00196" y1="-16.0276" x2="-4.15458" y2="-13.4078" gradientUnits="userSpaceOnUse">
<stop stop-color="#CFDDF3"/>
<stop offset="1" stop-color="#A1B8E3"/>
</linearGradient>
<linearGradient id="paint21_linear_4578_2722" x1="6.99924" y1="-16.0339" x2="-4.15387" y2="-13.4169" gradientUnits="userSpaceOnUse">
<stop stop-color="#CFDDF3"/>
<stop offset="1" stop-color="#A1B8E3"/>
</linearGradient>
<linearGradient id="paint22_linear_4578_2722" x1="7.00139" y1="-16.0289" x2="-4.15443" y2="-13.4097" gradientUnits="userSpaceOnUse">
<stop stop-color="#CFDDF3"/>
<stop offset="1" stop-color="#A1B8E3"/>
</linearGradient>
<linearGradient id="paint23_linear_4578_2722" x1="7.00167" y1="-16.0283" x2="-4.15451" y2="-13.4088" gradientUnits="userSpaceOnUse">
<stop stop-color="#CFDDF3"/>
<stop offset="1" stop-color="#A1B8E3"/>
</linearGradient>
<linearGradient id="paint24_linear_4578_2722" x1="47.0288" y1="172.807" x2="50.8284" y2="184.581" gradientUnits="userSpaceOnUse">
<stop stop-color="#EDF3FD" stop-opacity="0.01"/>
<stop offset="1" stop-color="#D6E3FA"/>
</linearGradient>
<radialGradient id="paint25_radial_4578_2722" cx="0" cy="0" r="1" gradientUnits="userSpaceOnUse" gradientTransform="translate(70.0382 110.457) rotate(150.829) scale(42.3238 130.844)">
<stop stop-color="#64CF9B"/>
<stop offset="1" stop-color="#ADF9A9"/>
</radialGradient>
<linearGradient id="paint26_linear_4578_2722" x1="55.3276" y1="111.734" x2="55.3276" y2="181.583" gradientUnits="userSpaceOnUse">
<stop stop-color="#80D4AE"/>
<stop offset="1" stop-color="#4CB67D"/>
</linearGradient>
<linearGradient id="paint27_linear_4578_2722" x1="54.9333" y1="134.625" x2="54.9333" y2="141.926" gradientUnits="userSpaceOnUse">
<stop stop-color="#64DEA8"/>
<stop offset="1" stop-color="#4CB67D"/>
</linearGradient>
<linearGradient id="paint28_linear_4578_2722" x1="48.6223" y1="153.762" x2="48.6223" y2="162.838" gradientUnits="userSpaceOnUse">
<stop stop-color="#64DEA8"/>
<stop offset="1" stop-color="#4CB67D"/>
</linearGradient>
<linearGradient id="paint29_linear_4578_2722" x1="56.7083" y1="147.844" x2="56.7083" y2="153.369" gradientUnits="userSpaceOnUse">
<stop stop-color="#64DEA8"/>
<stop offset="1" stop-color="#4CB67D"/>
</linearGradient>
<linearGradient id="paint30_linear_4578_2722" x1="62.4277" y1="113.312" x2="62.4277" y2="123.77" gradientUnits="userSpaceOnUse">
<stop stop-color="#64DEA8"/>
<stop offset="1" stop-color="#4CB67D"/>
</linearGradient>
<linearGradient id="paint31_linear_4578_2722" x1="91.4093" y1="189.207" x2="91.2555" y2="210.996" gradientUnits="userSpaceOnUse">
<stop stop-color="#D0DCF1"/>
<stop offset="1" stop-color="white"/>
</linearGradient>
<linearGradient id="paint32_linear_4578_2722" x1="235.975" y1="2.91448" x2="138.069" y2="26.6436" gradientUnits="userSpaceOnUse">
<stop stop-color="#47689B"/>
<stop offset="1" stop-color="#223762"/>
</linearGradient>
<linearGradient id="paint33_linear_4578_2722" x1="165.963" y1="-29.0906" x2="41.6457" y2="28.0622" gradientUnits="userSpaceOnUse">
<stop stop-color="#47689B"/>
<stop offset="1" stop-color="#223762"/>
</linearGradient>
<linearGradient id="paint34_linear_4578_2722" x1="138.87" y1="40.1533" x2="201.271" y2="40.1533" gradientUnits="userSpaceOnUse">
<stop stop-color="#365383"/>
<stop offset="1" stop-color="#1C2C4C"/>
</linearGradient>
<linearGradient id="paint35_linear_4578_2722" x1="157.605" y1="194.967" x2="169.696" y2="177.878" gradientUnits="userSpaceOnUse">
<stop stop-color="#365383"/>
<stop offset="1" stop-color="#1C2C4C"/>
</linearGradient>
<linearGradient id="paint36_linear_4578_2722" x1="212.844" y1="185.247" x2="210.57" y2="150.989" gradientUnits="userSpaceOnUse">
<stop stop-color="#EDF3FD"/>
<stop offset="1" stop-color="#D6E3FA"/>
</linearGradient>
<linearGradient id="paint37_linear_4578_2722" x1="212.844" y1="158.02" x2="210.57" y2="123.763" gradientUnits="userSpaceOnUse">
<stop stop-color="#EDF3FD"/>
<stop offset="1" stop-color="#D6E3FA"/>
</linearGradient>
<linearGradient id="paint38_linear_4578_2722" x1="212.844" y1="101.192" x2="210.57" y2="66.9347" gradientUnits="userSpaceOnUse">
<stop stop-color="#EDF3FD"/>
<stop offset="1" stop-color="#D6E3FA"/>
</linearGradient>
<linearGradient id="paint39_linear_4578_2722" x1="218.712" y1="112.734" x2="214.006" y2="79.7055" gradientUnits="userSpaceOnUse">
<stop stop-color="#FFE883"/>
<stop offset="1" stop-color="#FECC4C"/>
</linearGradient>
<linearGradient id="paint40_linear_4578_2722" x1="129.659" y1="220.323" x2="19.1395" y2="220.323" gradientUnits="userSpaceOnUse">
<stop stop-color="#D0DCF1"/>
<stop offset="1" stop-color="white" stop-opacity="0.01"/>
</linearGradient>
<linearGradient id="paint41_linear_4578_2722" x1="95.0858" y1="220.966" x2="-13.9692" y2="220.966" gradientUnits="userSpaceOnUse">
<stop stop-color="#D0DCF1"/>
<stop offset="1" stop-color="white" stop-opacity="0.01"/>
</linearGradient>
<linearGradient id="paint42_linear_4578_2722" x1="87.1489" y1="155.78" x2="91.8124" y2="148.606" gradientUnits="userSpaceOnUse">
<stop stop-color="#70B8F9"/>
<stop offset="1" stop-color="#3D82F0"/>
</linearGradient>
<linearGradient id="paint43_linear_4578_2722" x1="88.5203" y1="227.894" x2="94.2341" y2="219.156" gradientUnits="userSpaceOnUse">
<stop stop-color="#47689B"/>
<stop offset="1" stop-color="#223762"/>
</linearGradient>
<linearGradient id="paint44_linear_4578_2722" x1="123.766" y1="231.56" x2="128.372" y2="222.191" gradientUnits="userSpaceOnUse">
<stop stop-color="#47689B"/>
<stop offset="1" stop-color="#223762"/>
</linearGradient>
<linearGradient id="paint45_linear_4578_2722" x1="108.707" y1="235.624" x2="136.084" y2="173.389" gradientUnits="userSpaceOnUse">
<stop stop-color="#CFDDF3"/>
<stop offset="1" stop-color="#A1B8E3"/>
</linearGradient>
<linearGradient id="paint46_linear_4578_2722" x1="121.62" y1="163.367" x2="121.323" y2="158.12" gradientUnits="userSpaceOnUse">
<stop stop-color="#CFDDF3" stop-opacity="0.477723"/>
<stop offset="1" stop-color="#A1B8E3"/>
</linearGradient>
<linearGradient id="paint47_linear_4578_2722" x1="107.081" y1="93.7373" x2="97.1204" y2="100.453" gradientUnits="userSpaceOnUse">
<stop stop-color="#70B8F9"/>
<stop offset="1" stop-color="#3D82F0"/>
</linearGradient>
<linearGradient id="paint48_linear_4578_2722" x1="89.3388" y1="93.6359" x2="98.2632" y2="105.396" gradientUnits="userSpaceOnUse">
<stop stop-color="#164898"/>
<stop offset="1" stop-color="#223762"/>
</linearGradient>
<linearGradient id="paint49_linear_4578_2722" x1="80.556" y1="139.828" x2="89.5084" y2="138.653" gradientUnits="userSpaceOnUse">
<stop stop-color="#EDF3FD"/>
<stop offset="1" stop-color="#D6E3FA"/>
</linearGradient>
<linearGradient id="paint50_linear_4578_2722" x1="113.936" y1="149.754" x2="119.885" y2="145.963" gradientUnits="userSpaceOnUse">
<stop stop-color="#CFDDF3"/>
<stop offset="1" stop-color="#A1B8E3"/>
</linearGradient>
<linearGradient id="paint51_linear_4578_2722" x1="125.811" y1="123.015" x2="125.729" y2="117.429" gradientUnits="userSpaceOnUse">
<stop stop-color="#CFDDF3"/>
<stop offset="1" stop-color="#A1B8E3"/>
</linearGradient>
<linearGradient id="paint52_linear_4578_2722" x1="157.663" y1="155.71" x2="144.529" y2="103.057" gradientUnits="userSpaceOnUse">
<stop stop-color="#70B8F9"/>
<stop offset="1" stop-color="#3D82F0"/>
</linearGradient>
<linearGradient id="paint53_linear_4578_2722" x1="101.5" y1="125.614" x2="107.417" y2="137.74" gradientUnits="userSpaceOnUse">
<stop stop-color="#D6E3FA"/>
<stop offset="1" stop-color="#E3EDFE"/>
</linearGradient>
</defs>
</svg>
