<svg width="200" height="200" viewBox="0 0 200 200" fill="none" xmlns="http://www.w3.org/2000/svg">
<circle cx="103.751" cy="101.251" r="62.6786" fill="#FFF1FE"/>
<circle cx="45.0008" cy="58.9305" r="3.92857" fill="#FFF1FE"/>
<circle cx="146.607" cy="43.3937" r="7.32143" fill="#FFF1FE"/>
<circle cx="46.2494" cy="141.609" r="6.96429" fill="#FFF1FE"/>
<circle cx="170.892" cy="134.822" r="6.96429" fill="#FFF1FE"/>
<circle cx="157.321" cy="142.68" r="3.39286" fill="#FFF1FE"/>
<path d="M113.759 41.2641C113.552 41.22 113.552 40.9245 113.759 40.8805L116.89 40.2147C116.965 40.1987 117.024 40.1399 117.041 40.0645L117.715 36.956C117.759 36.7499 118.053 36.7499 118.098 36.956L118.772 40.0645C118.788 40.1399 118.848 40.1987 118.923 40.2147L122.054 40.8805C122.261 40.9245 122.261 41.22 122.054 41.2641L118.923 41.9298C118.848 41.9458 118.788 42.0046 118.772 42.08L118.098 45.1886C118.053 45.3946 117.759 45.3946 117.715 45.1886L117.041 42.08C117.024 42.0046 116.965 41.9458 116.89 41.9298L113.759 41.2641Z" fill="#F5C4F1"/>
<path d="M28.651 110.58C28.731 110.203 29.2699 110.203 29.3498 110.58L30.5437 116.221C30.5728 116.358 30.6798 116.466 30.8171 116.496L36.399 117.712C36.7739 117.793 36.7739 118.328 36.399 118.41L30.8171 119.626C30.6798 119.655 30.5728 119.763 30.5437 119.901L29.3498 125.541C29.2699 125.918 28.731 125.918 28.651 125.541L27.4572 119.901C27.4281 119.763 27.3211 119.655 27.1838 119.626L21.6018 118.41C21.227 118.328 21.227 117.793 21.6018 117.712L27.1838 116.496C27.3211 116.466 27.4281 116.358 27.4572 116.221L28.651 110.58Z" fill="#F5C4F1"/>
<path d="M159.765 60.5804C159.845 60.2028 160.384 60.2028 160.464 60.5804L161.16 63.8708C161.189 64.0082 161.296 64.1158 161.434 64.1458L164.699 64.8572C165.074 64.9388 165.074 65.4734 164.699 65.5551L161.434 66.2665C161.296 66.2964 161.189 66.4041 161.16 66.5415L160.464 69.8319C160.384 70.2095 159.845 70.2095 159.765 69.8319L159.069 66.5415C159.04 66.4041 158.933 66.2964 158.795 66.2665L155.53 65.5551C155.155 65.4734 155.155 64.9388 155.53 64.8572L158.795 64.1458C158.933 64.1158 159.04 64.0082 159.069 63.8708L159.765 60.5804Z" fill="#F5C4F1"/>
<path d="M174.163 113.334L175.257 118.501L180.35 119.61L175.257 120.72L174.163 125.887L173.07 120.72L167.977 119.61L173.07 118.501L174.163 113.334Z" fill="white"/>
<rect x="102.446" y="65.319" width="64.3602" height="69.2885" rx="3.74713" transform="rotate(10 102.446 65.319)" fill="white" stroke="#F5C4F1" stroke-width="1.42857"/>
<rect x="105.522" y="69.7116" width="56.3989" height="49.1959" rx="3.74713" transform="rotate(10 105.522 69.7116)" fill="#FFF1FE" stroke="#FFF1FE" stroke-width="1.42857"/>
<rect x="40.2448" y="76.4948" width="64.3602" height="69.2885" rx="3.74713" transform="rotate(-10 40.2448 76.4948)" fill="white" stroke="#F5C4F1" stroke-width="1.42857"/>
<rect x="44.6374" y="79.571" width="56.3989" height="49.1959" rx="3.74713" transform="rotate(-10 44.6374 79.571)" fill="#FFF1FE" stroke="#FFF1FE" stroke-width="1.42857"/>
<rect x="66.649" y="59.6431" width="76.7621" height="82.6618" rx="4.34482" fill="white" stroke="#F5C4F1" stroke-width="1.42857"/>
<rect x="71.1881" y="64.1822" width="67.232" height="58.6095" rx="4.34482" fill="url(#paint0_linear_4051_18359)" stroke="#F5C4F1" stroke-width="1.42857"/>
<circle cx="113.433" cy="78.2068" r="5.30637" fill="white"/>
<path d="M120.158 89.0401C120.508 88.4888 121.313 88.4888 121.663 89.0401L133.201 107.208C133.577 107.801 133.151 108.577 132.448 108.577H109.372C108.67 108.577 108.243 107.801 108.62 107.208L120.158 89.0401Z" fill="#F5C4F1"/>
<path d="M94.0766 77.4172C94.1431 77.3041 94.3059 77.3017 94.3758 77.4128L113.435 107.722C113.508 107.839 113.425 107.99 113.287 107.99H76.397C76.2615 107.99 76.1773 107.843 76.246 107.726L75.6304 107.364L76.246 107.726L94.0766 77.4172Z" fill="#FFDDFC" stroke="#FFDDFC" stroke-width="1.42857"/>
<path d="M93.8593 75.861C94.0011 75.6138 94.3558 75.6087 94.5048 75.8515L99.6118 84.1756C99.8247 84.5226 99.4102 84.9129 99.0766 84.6794L97.5285 83.5957C97.3955 83.5026 97.2178 83.5056 97.088 83.6029L94.8812 85.258C94.7723 85.3397 94.6278 85.356 94.5035 85.3007L91.9333 84.1584C91.8352 84.1148 91.7232 84.1153 91.6255 84.1597L89.2643 85.233C88.9323 85.3839 88.6019 85.0206 88.7834 84.7044L93.8593 75.861Z" fill="white"/>
<path d="M121.298 87.78C121.192 87.5966 120.929 87.5928 120.819 87.773L117.03 93.949C116.872 94.2065 117.179 94.496 117.427 94.3228L118.562 93.5282C118.667 93.4547 118.808 93.4623 118.905 93.5468L120.523 94.9624C120.611 95.0398 120.739 95.0533 120.841 94.9963L122.718 93.9536C122.795 93.9107 122.888 93.907 122.969 93.9435L124.707 94.7335C124.953 94.8455 125.198 94.576 125.064 94.3413L121.298 87.78Z" fill="white"/>
<path d="M82.0781 111.975H99.6856" stroke="#FFDDFC" stroke-width="1.42857" stroke-linecap="round"/>
<path d="M72.502 108.572H137.859" stroke="#F5C4F1" stroke-width="1.42857" stroke-linecap="square"/>
<path d="M94.8594 114.748H106.198" stroke="#FFDDFC" stroke-width="1.42857" stroke-linecap="round"/>
<path d="M86.418 114.869H93.1715" stroke="#FFDDFC" stroke-width="1.42857" stroke-linecap="round"/>
<path d="M117.293 112.215H122.841" stroke="#FFDDFC" stroke-width="1.42857" stroke-linecap="round"/>
<defs>
<linearGradient id="paint0_linear_4051_18359" x1="76.4312" y1="65.0011" x2="128.931" y2="122.144" gradientUnits="userSpaceOnUse">
<stop stop-color="#FFDDFC"/>
<stop offset="1" stop-color="#FFF1FE" stop-opacity="0"/>
</linearGradient>
</defs>
</svg>
