<svg width="28" height="28" viewBox="0 0 28 28" fill="none" xmlns="http://www.w3.org/2000/svg">
<rect x="0.1" y="0.1" width="27.8" height="27.8" rx="13.9" fill="#F8EBFF"/>
<rect x="0.1" y="0.1" width="27.8" height="27.8" rx="13.9" stroke="#AA00FF" stroke-width="0.2"/>
<path opacity="0.5" d="M14.0001 6C10.4655 6 7.6001 9.20207 7.6001 12.8C7.6001 16.3697 9.64276 20.2499 12.8298 21.7396C13.5727 22.0868 14.4275 22.0868 15.1704 21.7396C18.3574 20.2499 20.4001 16.3697 20.4001 12.8C20.4001 9.20207 17.5347 6 14.0001 6Z" fill="#AA00FF"/>
<path d="M13.9999 14C14.8836 14 15.5999 13.2836 15.5999 12.4C15.5999 11.5163 14.8836 10.8 13.9999 10.8C13.1162 10.8 12.3999 11.5163 12.3999 12.4C12.3999 13.2836 13.1162 14 13.9999 14Z" fill="#AA00FF"/>
</svg>
