<svg width="14" height="14" viewBox="0 0 14 14" fill="none" xmlns="http://www.w3.org/2000/svg">
<g id="Group">
<path id="Vector" fill-rule="evenodd" clip-rule="evenodd" d="M10 0.25C10.1989 0.25 10.3897 0.329018 10.5303 0.46967C10.671 0.610322 10.75 0.801088 10.75 1V1.75H12.25C12.6478 1.75 13.0294 1.90804 13.3107 2.18934C13.592 2.47064 13.75 2.85217 13.75 3.25V7.396C12.8927 6.62964 11.7745 6.22056 10.6251 6.25272C9.47562 6.28489 8.38209 6.75588 7.56898 7.56898C6.75588 8.38209 6.28489 9.47562 6.25272 10.6251C6.22056 11.7745 6.62964 12.8927 7.396 13.75H1.75C1.35218 13.75 0.970644 13.592 0.68934 13.3107C0.408035 13.0294 0.25 12.6478 0.25 12.25V3.25C0.25 2.85217 0.408035 2.47064 0.68934 2.18934C0.970644 1.90804 1.35218 1.75 1.75 1.75H3.25V1C3.25 0.801088 3.32902 0.610322 3.46967 0.46967C3.61032 0.329018 3.80109 0.25 4 0.25C4.19891 0.25 4.38968 0.329018 4.53033 0.46967C4.67098 0.610322 4.75 0.801088 4.75 1V1.75H9.25V1C9.25 0.801088 9.32902 0.610322 9.46967 0.46967C9.61032 0.329018 9.80109 0.25 10 0.25ZM10.75 7.75C11.5456 7.75 12.3087 8.06607 12.8713 8.62868C13.4339 9.19129 13.75 9.95435 13.75 10.75C13.75 11.5456 13.4339 12.3087 12.8713 12.8713C12.3087 13.4339 11.5456 13.75 10.75 13.75C9.95435 13.75 9.19129 13.4339 8.62868 12.8713C8.06607 12.3087 7.75 11.5456 7.75 10.75C7.75 9.95435 8.06607 9.19129 8.62868 8.62868C9.19129 8.06607 9.95435 7.75 10.75 7.75ZM10.75 8.875C10.5663 8.87502 10.389 8.94247 10.2517 9.06454C10.1144 9.18661 10.0267 9.35481 10.0052 9.53725L10 9.625V10.75C10 10.9337 10.0675 11.111 10.1895 11.2483C10.3116 11.3856 10.4798 11.4733 10.6622 11.4947L10.75 11.5H11.5C11.6912 11.4998 11.875 11.4266 12.014 11.2954C12.153 11.1641 12.2367 10.9848 12.2479 10.794C12.2591 10.6031 12.197 10.4152 12.0743 10.2686C11.9516 10.122 11.7776 10.0278 11.5877 10.0052L11.5 10V9.625C11.5 9.42609 11.421 9.23532 11.2803 9.09467C11.1397 8.95402 10.9489 8.875 10.75 8.875ZM4.375 8.5H4C3.80109 8.5 3.61032 8.57902 3.46967 8.71967C3.32902 8.86032 3.25 9.05109 3.25 9.25C3.25 9.44891 3.32902 9.63968 3.46967 9.78033C3.61032 9.92098 3.80109 10 4 10H4.375C4.57391 10 4.76468 9.92098 4.90533 9.78033C5.04598 9.63968 5.125 9.44891 5.125 9.25C5.125 9.05109 5.04598 8.86032 4.90533 8.71967C4.76468 8.57902 4.57391 8.5 4.375 8.5ZM6.25 5.5H4C3.80884 5.50021 3.62498 5.57341 3.48597 5.70464C3.34697 5.83586 3.26332 6.01521 3.25212 6.20605C3.24092 6.39688 3.30301 6.58478 3.4257 6.73137C3.54839 6.87796 3.72243 6.97217 3.91225 6.99475L4 7H6.25C6.44116 6.99979 6.62502 6.92659 6.76403 6.79536C6.90303 6.66414 6.98668 6.48478 6.99788 6.29395C7.00908 6.10312 6.94699 5.91522 6.8243 5.76863C6.70161 5.62204 6.52757 5.52783 6.33775 5.50525L6.25 5.5Z" fill="#2F6FED"/>
</g>
</svg>
