<svg width="21" height="20" viewBox="0 0 21 20" fill="none" xmlns="http://www.w3.org/2000/svg">
<g id="Group">
<path id="Vector" d="M10.5 1.66666C11.384 1.66666 12.2319 2.01785 12.857 2.64297C13.4821 3.26809 13.8333 4.11593 13.8333 4.99999H15.5291C15.961 4.99993 16.376 5.16748 16.6867 5.46733C16.9974 5.76719 17.1797 6.17594 17.195 6.60749L17.5516 16.6075C17.5596 16.8311 17.5224 17.0541 17.4423 17.2631C17.3622 17.4721 17.2409 17.6628 17.0855 17.8238C16.9301 17.9849 16.7439 18.113 16.5379 18.2006C16.3319 18.2881 16.1104 18.3332 15.8867 18.3333H5.11332C4.88952 18.3332 4.66803 18.2881 4.46206 18.2006C4.25609 18.113 4.06986 17.9849 3.91447 17.8238C3.75909 17.6628 3.63773 17.4721 3.55764 17.2631C3.47755 17.0541 3.44037 16.8311 3.44832 16.6075L3.80498 6.60749C3.82031 6.17594 4.00254 5.76719 4.31327 5.46733C4.62401 5.16748 5.039 4.99993 5.47082 4.99999H7.16665C7.16665 4.11593 7.51784 3.26809 8.14296 2.64297C8.76808 2.01785 9.61593 1.66666 10.5 1.66666ZM7.16665 6.66666H5.47082L5.11332 16.6667H15.8867L15.5291 6.66666H13.8333V7.49999C13.8331 7.71239 13.7517 7.91668 13.6059 8.07113C13.4601 8.22558 13.2609 8.31852 13.0488 8.33097C12.8368 8.34341 12.628 8.27443 12.4651 8.1381C12.3022 8.00178 12.1976 7.8084 12.1725 7.59749L12.1666 7.49999V6.66666H8.83332V7.49999C8.83308 7.71239 8.75175 7.91668 8.60594 8.07113C8.46013 8.22558 8.26086 8.31852 8.04882 8.33097C7.83679 8.34341 7.628 8.27443 7.46512 8.1381C7.30224 8.00178 7.19757 7.8084 7.17248 7.59749L7.16665 7.49999V6.66666ZM10.5 3.33332C10.0795 3.33319 9.67451 3.492 9.36619 3.7779C9.05787 4.06381 8.86902 4.45569 8.83748 4.87499L8.83332 4.99999H12.1666C12.1666 4.55796 11.9911 4.13404 11.6785 3.82148C11.3659 3.50892 10.942 3.33332 10.5 3.33332Z" fill="#070707" fillOpacity="0.5"/>
</g>
</svg>
