<svg width="18" height="18" viewBox="0 0 18 18" fill="none" xmlns="http://www.w3.org/2000/svg">
<g id="Group">
<path id="Vector" d="M8.99935 0.666748C13.6018 0.666748 17.3327 4.39758 17.3327 9.00008C17.3327 13.6026 13.6018 17.3334 8.99935 17.3334C4.39685 17.3334 0.666016 13.6026 0.666016 9.00008C0.666016 4.39758 4.39685 0.666748 8.99935 0.666748ZM8.99935 4.00008C8.77833 4.00008 8.56637 4.08788 8.41009 4.24416C8.25381 4.40044 8.16602 4.6124 8.16602 4.83341V9.00008C8.16606 9.22108 8.25389 9.433 8.41018 9.58925L10.9102 12.0892C11.0674 12.241 11.2779 12.325 11.4963 12.3231C11.7148 12.3212 11.9239 12.2336 12.0784 12.0791C12.2329 11.9246 12.3205 11.7156 12.3224 11.4971C12.3243 11.2786 12.2403 11.0681 12.0885 10.9109L9.83268 8.65508V4.83341C9.83268 4.6124 9.74488 4.40044 9.5886 4.24416C9.43232 4.08788 9.22036 4.00008 8.99935 4.00008Z" fill="#070707" fillRule="0.8"/>
</g>
</svg>
