<svg width="330" height="260" viewBox="0 0 330 260" fill="none" xmlns="http://www.w3.org/2000/svg">
<path fill-rule="evenodd" clip-rule="evenodd" d="M53.6666 260.168C24.6012 260.168 0.820312 236.416 0.820312 207.385C0.820312 178.354 24.6012 154.602 53.6658 154.602H53.6666C65.9567 154.602 76.0103 144.56 76.0103 132.284C76.0103 120.01 65.9552 109.967 53.6658 109.967H51.0072C38.23 109.967 27.776 99.5254 27.776 86.763C27.776 74.0014 38.2293 63.5599 51.0072 63.5599H59.1644C64.1396 63.5599 68.2084 59.4946 68.2084 54.5277C68.2084 49.5593 64.1396 45.4939 59.1644 45.4939H53.1708C49.7368 45.4939 46.9289 42.688 46.9289 39.2596C46.9289 35.8305 49.7368 33.0253 53.1708 33.0253H93.4671C98.8615 33.0253 103.275 28.6168 103.275 23.2288C103.275 17.8416 98.8615 13.4324 93.4671 13.4324H81.4186C77.9854 13.4324 75.1768 10.6264 75.1768 7.19805C75.1768 3.76969 77.9854 0.963739 81.4186 0.963739H252.777C257.257 0.963739 260.923 4.62478 260.923 9.09875C260.923 13.5727 257.256 17.2345 252.777 17.2345H240.42C233.38 17.2345 227.621 22.9867 227.621 30.0165C227.621 37.047 233.38 42.7985 240.42 42.7985H293.332C297.812 42.7985 301.477 46.4603 301.477 50.9335C301.477 55.4075 297.812 59.0692 293.332 59.0692H285.511C279.02 59.0692 273.709 64.3736 273.709 70.8566C273.709 77.3396 279.02 82.6446 285.511 82.6446H296.155C312.827 82.6446 326.469 96.2686 326.469 112.922C326.469 129.574 312.828 143.2 296.155 143.2H292.685C276.649 143.2 263.528 156.303 263.528 172.32V172.321C263.528 188.338 276.649 201.443 292.685 201.443H300.199C316.368 201.443 329.598 214.657 329.598 230.806C329.598 246.955 316.368 260.168 300.199 260.168C216.548 260.168 137.32 260.168 53.6666 260.168ZM273.619 17.2337C278.117 17.2337 281.764 13.5916 281.764 9.09802C281.764 4.60515 278.116 0.963013 273.619 0.963013C269.12 0.963013 265.473 4.60443 265.473 9.09802C265.474 13.5916 269.12 17.2337 273.619 17.2337ZM35.6544 45.4932C39.1015 45.4932 41.8963 42.7025 41.8963 39.2589C41.8963 35.816 39.1022 33.0246 35.6544 33.0246C32.2066 33.0246 29.4125 35.8153 29.4125 39.2589C29.4118 42.7025 32.2059 45.4932 35.6544 45.4932Z" fill="#EEF5FB"/>
<path fill-rule="evenodd" clip-rule="evenodd" d="M166.356 52.1958H67.9025C68.102 52.9404 68.209 53.722 68.209 54.5269C68.209 59.4946 64.1402 63.5592 59.1651 63.5592H51.0086C38.2314 63.5592 27.7773 74.0006 27.7773 86.7623C27.7773 86.8306 27.7781 86.8975 27.7795 86.9652H166.356C175.928 86.9652 183.762 79.1428 183.762 69.5805C183.762 60.0196 175.929 52.1958 166.356 52.1958Z" fill="#DCE9F7"/>
<path fill-rule="evenodd" clip-rule="evenodd" d="M29.9097 77.0807H183.761V260.168H53.6673C24.6012 260.168 0.820312 236.416 0.820312 207.385C0.820312 178.354 24.6012 154.602 53.6658 154.602H53.6673C65.9567 154.602 76.0103 144.559 76.0103 132.284C76.0103 120.01 65.9552 109.967 53.6658 109.967H51.0072C38.2301 109.967 27.776 99.5254 27.776 86.763C27.7767 83.3121 28.5411 80.0313 29.9097 77.0807Z" fill="#CDE0F3"/>
<path fill-rule="evenodd" clip-rule="evenodd" d="M28.3569 91.9132H171.229C175.32 91.9132 178.666 95.8789 178.666 100.727V260.168H53.6673C24.6012 260.168 0.820312 236.416 0.820312 207.385C0.820312 178.354 24.6012 154.602 53.6658 154.602H53.6673C65.9567 154.602 76.0103 144.56 76.0103 132.284C76.0103 120.01 65.9552 109.967 53.6658 109.967H51.0072C40.0005 109.966 30.7193 102.218 28.3569 91.9132Z" fill="#C1DBF2"/>
<path fill-rule="evenodd" clip-rule="evenodd" d="M74.7596 124.938H178.667V139.936H74.6504C75.5305 137.546 76.011 134.969 76.011 132.284C76.0118 129.713 75.5691 127.241 74.7596 124.938Z" fill="#CDE0F3"/>
<path fill-rule="evenodd" clip-rule="evenodd" d="M185.958 118.556H71.252C74.2302 122.349 76.0109 127.119 76.0109 132.284C76.0109 132.711 75.9978 133.134 75.9738 133.555H185.958C188.655 133.555 190.86 131.352 190.86 128.658V123.453C190.86 120.76 188.655 118.556 185.958 118.556Z" fill="#DCE9F7"/>
<path fill-rule="evenodd" clip-rule="evenodd" d="M2.88638 192.802H178.666V207.801H0.825408C0.82468 207.662 0.820312 207.524 0.820312 207.385C0.820313 202.331 1.54322 197.438 2.88638 192.802Z" fill="#CDE0F3"/>
<path fill-rule="evenodd" clip-rule="evenodd" d="M185.956 186.421H5.19473C3.14541 191.111 1.76221 196.152 1.16016 201.42H185.956C188.654 201.42 190.859 199.216 190.859 196.523V191.318C190.859 188.624 188.654 186.421 185.956 186.421Z" fill="#DCE9F7"/>
<path fill-rule="evenodd" clip-rule="evenodd" d="M185.959 254.285H29.5C36.7531 258.041 44.9736 260.168 53.6689 260.168H190.862V259.183C190.861 256.489 188.656 254.285 185.959 254.285Z" fill="white"/>
<path fill-rule="evenodd" clip-rule="evenodd" d="M185.957 69.5804H35.4355C31.2459 73.3731 28.4387 78.6629 27.8789 84.5802H185.957C188.654 84.5802 190.859 82.3763 190.859 79.683V74.4776C190.859 71.7843 188.654 69.5804 185.957 69.5804Z" fill="#DCE9F7"/>
<path fill-rule="evenodd" clip-rule="evenodd" d="M41.4923 65.8183H170.055C173.535 65.8183 176.383 62.6226 176.383 58.7151C176.383 57.1991 175.953 55.7899 175.225 54.6323C180.252 57.2514 183.762 62.9782 183.762 69.5804H35.4375C37.2262 68.0469 39.2675 66.7708 41.4923 65.8183Z" fill="#CDE0F3"/>
<path fill-rule="evenodd" clip-rule="evenodd" d="M172.534 148.532H151.047C150.039 148.532 149.213 149.356 149.213 150.363V184.587C149.213 185.596 150.038 186.42 151.047 186.42H172.534C173.543 186.42 174.369 185.596 174.369 184.587V150.363C174.368 149.356 173.543 148.532 172.534 148.532Z" fill="#EAEAE6"/>
<path fill-rule="evenodd" clip-rule="evenodd" d="M146.317 148.532H135.406C134.893 148.532 134.475 148.95 134.475 149.462V185.49C134.475 186.002 134.894 186.42 135.406 186.42H146.317C146.828 186.42 147.248 186.002 147.248 185.49V149.462C147.248 148.951 146.828 148.532 146.317 148.532Z" fill="#E7E9E3"/>
<path fill-rule="evenodd" clip-rule="evenodd" d="M137.123 141.39H124.423C123.827 141.39 123.338 141.877 123.338 142.472V185.337C123.338 185.933 123.826 186.42 124.423 186.42H137.123C137.72 186.42 138.208 185.933 138.208 185.337V142.472C138.208 141.877 137.72 141.39 137.123 141.39Z" fill="#B3CEEB"/>
<path fill-rule="evenodd" clip-rule="evenodd" d="M141.776 168.874H119.772C119.069 168.874 118.492 169.45 118.492 170.154V185.141C118.492 185.845 119.069 186.42 119.772 186.42H141.776C142.481 186.42 143.057 185.845 143.057 185.141V170.154C143.057 169.45 142.481 168.874 141.776 168.874Z" fill="#B8D3EE"/>
<path fill-rule="evenodd" clip-rule="evenodd" d="M114.743 154.278H103.831C103.319 154.278 102.9 154.697 102.9 155.207V185.491C102.9 186.002 103.32 186.42 103.831 186.42H114.743C115.255 186.42 115.674 186.002 115.674 185.491V155.207C115.675 154.697 115.255 154.278 114.743 154.278Z" fill="#B8D3EE"/>
<path fill-rule="evenodd" clip-rule="evenodd" d="M168.349 157.022H155.233C154.555 157.022 154 157.576 154 158.253V165.426C154 166.104 154.555 166.657 155.233 166.657H168.349C169.027 166.657 169.581 166.103 169.581 165.426V158.253C169.581 157.576 169.026 157.022 168.349 157.022Z" fill="#E3E2DC"/>
<path fill-rule="evenodd" clip-rule="evenodd" d="M168.543 168.872H155.038C154.467 168.872 154 169.339 154 169.908V170.901C154 171.471 154.467 171.938 155.038 171.938H168.543C169.115 171.938 169.581 171.471 169.581 170.901V169.908C169.581 169.339 169.115 168.872 168.543 168.872Z" fill="#E3E2DC"/>
<path fill-rule="evenodd" clip-rule="evenodd" d="M168.543 174.812H155.038C154.467 174.812 154 175.278 154 175.848V176.841C154 177.411 154.467 177.878 155.038 177.878H168.543C169.115 177.878 169.581 177.411 169.581 176.841V175.848C169.581 175.278 169.115 174.812 168.543 174.812Z" fill="#E3E2DC"/>
<path fill-rule="evenodd" clip-rule="evenodd" d="M109.286 167.168C107.803 167.168 106.602 168.593 106.602 170.35C106.602 172.106 107.803 173.531 109.286 173.531C110.768 173.531 111.971 172.106 111.971 170.35C111.971 168.593 110.768 167.168 109.286 167.168Z" fill="#B3CEEB"/>
<path fill-rule="evenodd" clip-rule="evenodd" d="M115.064 112.772H109.288C108.881 112.772 108.549 113.104 108.549 113.51V117.819C108.549 118.225 108.881 118.556 109.288 118.556H115.064C115.471 118.556 115.803 118.225 115.803 117.819V113.51C115.803 113.104 115.471 112.772 115.064 112.772Z" fill="#DCE9F7"/>
<path fill-rule="evenodd" clip-rule="evenodd" d="M105.808 103.426H89.954C89.3468 103.426 88.8496 103.923 88.8496 104.529V117.453C88.8496 118.06 89.3468 118.556 89.954 118.556H105.808C106.416 118.556 106.913 118.06 106.913 117.453V104.529C106.913 103.922 106.416 103.426 105.808 103.426Z" fill="#B8D3EE"/>
<path fill-rule="evenodd" clip-rule="evenodd" d="M98.1969 108.251H87.3985C86.9843 108.251 86.6465 108.589 86.6465 109.003V117.805C86.6465 118.218 86.9843 118.556 87.3985 118.556H98.1969C98.6112 118.556 98.949 118.218 98.949 117.805V109.003C98.949 108.589 98.6112 108.251 98.1969 108.251Z" fill="#B3CEEB"/>
<path fill-rule="evenodd" clip-rule="evenodd" d="M90.6835 94.1549H81.3279C80.8882 94.1549 80.5293 94.5141 80.5293 94.9526V117.759C80.5293 118.198 80.8882 118.556 81.3279 118.556H90.6835C91.1224 118.556 91.4813 118.197 91.4813 117.759V94.9526C91.4813 94.5141 91.1217 94.1549 90.6835 94.1549Z" fill="#DCE9F7"/>
<path fill-rule="evenodd" clip-rule="evenodd" d="M149.322 101.625H148.714V100.488H148.921C149.3 100.488 149.609 100.122 149.609 99.673C149.609 99.2243 149.3 98.8564 148.921 98.8564H148.171V94.0596C148.171 93.6117 147.861 93.2452 147.483 93.2452C147.104 93.2452 146.795 93.6117 146.795 94.0596V98.8564H146.043C145.664 98.8564 145.355 99.2236 145.355 99.6722C145.355 100.12 145.664 100.488 146.043 100.488H146.251V101.625H145.642C145.22 101.625 144.875 102.035 144.875 102.536V117.647C144.875 118.148 145.22 118.557 145.642 118.557H149.322C149.745 118.557 150.09 118.148 150.09 117.647V102.536C150.09 102.035 149.745 101.625 149.322 101.625Z" fill="#B3CEEB"/>
<path fill-rule="evenodd" clip-rule="evenodd" d="M155.27 103.402H154.726V102.384H154.912C155.251 102.384 155.527 102.056 155.527 101.654C155.527 101.252 155.251 100.924 154.912 100.924H154.24V96.6307C154.24 96.2286 153.962 95.9006 153.623 95.9006C153.285 95.9006 153.008 96.2286 153.008 96.6307V100.924H152.335C151.997 100.924 151.719 101.252 151.719 101.654C151.719 102.056 151.996 102.384 152.335 102.384H152.521V103.402H151.977C151.598 103.402 151.289 103.769 151.289 104.217V117.743C151.289 118.19 151.598 118.557 151.977 118.557H155.27C155.648 118.557 155.957 118.19 155.957 117.743V104.217C155.958 103.769 155.649 103.402 155.27 103.402Z" fill="#B3CEEB"/>
<path fill-rule="evenodd" clip-rule="evenodd" d="M165.442 102.556H156.369C155.942 102.556 155.594 102.904 155.594 103.33V117.783C155.594 118.209 155.942 118.556 156.369 118.556H165.442C165.869 118.556 166.217 118.208 166.217 117.783V103.33C166.217 102.904 165.869 102.556 165.442 102.556Z" fill="#DCE9F7"/>
<path fill-rule="evenodd" clip-rule="evenodd" d="M163.678 106.141H158.14C157.853 106.141 157.619 106.375 157.619 106.661V109.691C157.619 109.977 157.854 110.21 158.14 110.21H163.678C163.964 110.21 164.198 109.976 164.198 109.691V106.661C164.198 106.375 163.964 106.141 163.678 106.141Z" fill="#F5F6F5"/>
<path fill-rule="evenodd" clip-rule="evenodd" d="M163.757 111.145H158.053C157.813 111.145 157.615 111.342 157.615 111.583V112.003C157.615 112.244 157.813 112.44 158.053 112.44H163.757C163.998 112.44 164.195 112.244 164.195 112.003V111.583C164.196 111.342 163.998 111.145 163.757 111.145Z" fill="#F5F6F5"/>
<path fill-rule="evenodd" clip-rule="evenodd" d="M163.757 113.654H158.053C157.813 113.654 157.615 113.851 157.615 114.092V114.511C157.615 114.752 157.813 114.949 158.053 114.949H163.757C163.998 114.949 164.195 114.753 164.195 114.511V114.092C164.196 113.851 163.998 113.654 163.757 113.654Z" fill="#F5F6F5"/>
<path fill-rule="evenodd" clip-rule="evenodd" d="M154.225 108.725H148.65C148.388 108.725 148.174 108.939 148.174 109.2V118.081C148.174 118.342 148.388 118.556 148.65 118.556H154.225C154.486 118.556 154.7 118.342 154.7 118.081V109.2C154.7 108.939 154.486 108.725 154.225 108.725Z" fill="#B8D3EE"/>
<path fill-rule="evenodd" clip-rule="evenodd" d="M142.391 94.5206H123.483C122.596 94.5206 121.869 95.2456 121.869 96.1326V116.944C121.869 117.831 122.596 118.556 123.483 118.556H142.391C143.279 118.556 144.005 117.831 144.005 116.944V96.1326C144.005 95.2456 143.279 94.5206 142.391 94.5206Z" fill="#B8D3EE"/>
<path fill-rule="evenodd" clip-rule="evenodd" d="M146.004 108.725H140.429C140.166 108.725 139.953 108.939 139.953 109.2V118.081C139.953 118.342 140.167 118.556 140.429 118.556H146.004C146.266 118.556 146.48 118.342 146.48 118.081V109.2C146.48 108.939 146.266 108.725 146.004 108.725Z" fill="#DCE9F7"/>
<path fill-rule="evenodd" clip-rule="evenodd" d="M57.8668 103.426H73.7205C74.3276 103.426 74.8256 103.923 74.8256 104.529V117.453C74.8256 118.06 74.3276 118.556 73.7205 118.556H71.2518C67.7567 114.106 62.6134 111.002 56.7617 110.184V104.529C56.7617 103.922 57.2575 103.426 57.8668 103.426Z" fill="#B3CEEB"/>
<path fill-rule="evenodd" clip-rule="evenodd" d="M65.4786 108.251H76.277C76.6912 108.251 77.029 108.589 77.029 109.003V117.805C77.029 118.218 76.6912 118.556 76.277 118.556H71.2524C69.4658 116.282 67.2484 114.359 64.7266 112.912V109.003C64.7266 108.589 65.0651 108.251 65.4786 108.251Z" fill="#B8D3EE"/>
<path fill-rule="evenodd" clip-rule="evenodd" d="M62.5299 111.305H66.1196C66.2871 111.305 66.4247 111.443 66.4247 111.611V113.992C65.1179 113.079 63.7114 112.3 62.2227 111.679V111.611C62.2234 111.443 62.3617 111.305 62.5299 111.305Z" fill="#F0F1EE"/>
<path fill-rule="evenodd" clip-rule="evenodd" d="M39.1804 97.5273H30.4473C32.6378 101.673 36.0514 105.086 40.1988 107.282V98.5439C40.1988 97.9847 39.7402 97.5273 39.1804 97.5273Z" fill="#EAEAE6"/>
<path fill-rule="evenodd" clip-rule="evenodd" d="M36.8551 102.24H33.7363C34.8756 103.506 36.1504 104.648 37.5394 105.64V102.923C37.5394 102.546 37.2315 102.24 36.8551 102.24Z" fill="#E3E2DC"/>
<path fill-rule="evenodd" clip-rule="evenodd" d="M46.2102 159.768H45.2528V157.978H45.5804C46.1752 157.978 46.6622 157.4 46.6622 156.694V156.692C46.6622 155.987 46.1759 155.409 45.5804 155.409H44.4651C42.9509 155.677 41.4592 156.014 39.9916 156.409C39.9741 156.5 39.9646 156.596 39.9646 156.692V156.694C39.9646 157.4 40.4517 157.978 41.0465 157.978H41.3755V159.768H40.4175C39.7528 159.768 39.209 160.414 39.209 161.202V184.989C39.209 185.776 39.7528 186.421 40.4175 186.421H46.2109C46.8756 186.421 47.4194 185.776 47.4194 184.989V161.202C47.4186 160.413 46.8748 159.768 46.2102 159.768Z" fill="#B3CEEB"/>
<path fill-rule="evenodd" clip-rule="evenodd" d="M55.5772 162.564H54.7203V160.962H55.013C55.5459 160.962 55.9819 160.445 55.9819 159.812C55.9819 159.18 55.5459 158.663 55.013 158.663H53.9537V154.598C53.8584 154.6 53.763 154.602 53.6684 154.602H53.6662C53.1136 154.602 52.5633 154.614 52.0151 154.63V158.663H50.9551C50.4222 158.663 49.9854 159.18 49.9854 159.812C49.9854 160.445 50.4215 160.962 50.9551 160.962H51.2485V162.564H50.3924C49.7961 162.564 49.3105 163.142 49.3105 163.846V185.139C49.3105 185.844 49.7961 186.421 50.3924 186.421H55.5772C56.1712 186.421 56.659 185.844 56.659 185.139V163.846C56.659 163.142 56.1712 162.564 55.5772 162.564Z" fill="#DEDED7"/>
<path fill-rule="evenodd" clip-rule="evenodd" d="M71.5894 161.232H57.3046C56.6349 161.232 56.0859 161.78 56.0859 162.45V185.203C56.0859 185.873 56.6341 186.421 57.3046 186.421H71.5894C72.2599 186.421 72.8088 185.873 72.8088 185.203V162.45C72.8088 161.78 72.2599 161.232 71.5894 161.232Z" fill="#F9F9FA"/>
<path fill-rule="evenodd" clip-rule="evenodd" d="M68.8066 166.876H60.0859C59.6359 166.876 59.2676 167.245 59.2676 167.695V172.464C59.2676 172.914 59.6359 173.283 60.0859 173.283H68.8066C69.2565 173.283 69.6248 172.914 69.6248 172.464V167.695C69.6248 167.245 69.2565 166.876 68.8066 166.876Z" fill="#F5F6F5"/>
<path fill-rule="evenodd" clip-rule="evenodd" d="M68.9354 174.755H59.957C59.577 174.755 59.2676 175.064 59.2676 175.443V176.103C59.2676 176.482 59.577 176.792 59.957 176.792H68.9354C69.3154 176.792 69.6248 176.482 69.6248 176.103V175.443C69.6248 175.064 69.3154 174.755 68.9354 174.755Z" fill="#F5F6F5"/>
<path fill-rule="evenodd" clip-rule="evenodd" d="M68.9354 178.704H59.957C59.577 178.704 59.2676 179.013 59.2676 179.393V180.052C59.2676 180.431 59.577 180.741 59.957 180.741H68.9354C69.3154 180.741 69.6248 180.431 69.6248 180.052V179.393C69.6248 179.013 69.3154 178.704 68.9354 178.704Z" fill="#F5F6F5"/>
<path fill-rule="evenodd" clip-rule="evenodd" d="M53.9275 170.944H45.1515C44.7394 170.944 44.4023 171.281 44.4023 171.691V185.672C44.4023 186.083 44.7394 186.42 45.1515 186.42H53.9275C54.3403 186.42 54.6766 186.083 54.6766 185.672V171.691C54.6773 171.281 54.341 170.944 53.9275 170.944Z" fill="#EAEAE6"/>
<path fill-rule="evenodd" clip-rule="evenodd" d="M5.20703 186.4C5.31405 186.413 5.42252 186.42 5.53463 186.42H35.3004C36.6981 186.42 37.8404 185.278 37.8404 183.884V157.036C23.2163 161.656 11.2917 172.49 5.20703 186.4Z" fill="#C1DBF2"/>
<path fill-rule="evenodd" clip-rule="evenodd" d="M40.9868 170.944H32.2093C31.798 170.944 31.4609 171.281 31.4609 171.691V185.672C31.4609 186.083 31.7973 186.42 32.2093 186.42H40.9868C41.3989 186.42 41.7367 186.083 41.7367 185.672V171.691C41.7367 171.281 41.3989 170.944 40.9868 170.944Z" fill="#C1DBF2"/>
<path fill-rule="evenodd" clip-rule="evenodd" d="M77.8944 245.9H86.27C86.859 245.9 87.3409 246.38 87.3409 246.968V253.217C87.3409 253.804 86.8582 254.285 86.27 254.285H77.8944C77.3054 254.285 76.8242 253.804 76.8242 253.217V246.968C76.8242 246.38 77.3054 245.9 77.8944 245.9Z" fill="#EAEAE6"/>
<path fill-rule="evenodd" clip-rule="evenodd" d="M91.3118 232.349H114.297C115.178 232.349 115.899 233.068 115.899 233.948V252.686C115.899 253.566 115.179 254.285 114.297 254.285H91.3118C90.4309 254.285 89.7109 253.566 89.7109 252.686V233.948C89.7109 233.068 90.4309 232.349 91.3118 232.349Z" fill="#EAEAE6"/>
<path fill-rule="evenodd" clip-rule="evenodd" d="M102.35 239.344H118.006C118.606 239.344 119.096 239.834 119.096 240.434V253.195C119.096 253.795 118.606 254.285 118.006 254.285H102.35C101.75 254.285 101.26 253.795 101.26 253.195V240.434C101.26 239.834 101.75 239.344 102.35 239.344Z" fill="#E1E1D9"/>
<path fill-rule="evenodd" clip-rule="evenodd" d="M113.242 218.907H126.804C127.44 218.907 127.962 219.428 127.962 220.064V253.129C127.962 253.766 127.441 254.285 126.804 254.285H113.242C112.605 254.285 112.084 253.766 112.084 253.129V220.064C112.084 219.427 112.605 218.907 113.242 218.907Z" fill="#B8D3EE"/>
<path fill-rule="evenodd" clip-rule="evenodd" d="M28.2296 229.739H29.1119V228.088H28.8105C28.2616 228.088 27.8124 227.557 27.8124 226.907V226.906C27.8124 226.256 28.2616 225.724 28.8105 225.724H29.9003V218.769C29.9003 218.118 30.3495 217.587 30.8977 217.587C31.4466 217.587 31.8951 218.118 31.8951 218.769V225.724H32.9849C33.5338 225.724 33.983 226.256 33.983 226.906V226.907C33.983 227.558 33.5338 228.088 32.9849 228.088H32.6828V229.739H33.5644C34.1759 229.739 34.6775 230.332 34.6775 231.058V252.964C34.6775 253.691 34.1766 254.284 33.5644 254.284H29.5007C28.694 253.866 27.8991 253.427 27.1172 252.968V252.963V231.057C27.1179 230.332 27.6173 229.739 28.2296 229.739Z" fill="#DEDED7"/>
<path fill-rule="evenodd" clip-rule="evenodd" d="M19.6009 232.314H20.39V230.838H20.1199C19.6293 230.838 19.2274 230.362 19.2274 229.779C19.2274 229.197 19.6293 228.721 20.1199 228.721H21.0962V222.496C21.0962 221.915 21.4973 221.44 21.9887 221.44C22.4794 221.44 22.8812 221.915 22.8812 222.496V228.721H23.8568C24.3482 228.721 24.7493 229.197 24.7493 229.779C24.7493 230.362 24.3482 230.838 23.8568 230.838H23.5859V232.314H24.3744C24.9226 232.314 25.371 232.845 25.371 233.494V251.908C22.9781 250.381 20.7162 248.667 18.6035 246.789V233.494C18.605 232.846 19.052 232.314 19.6009 232.314Z" fill="#DEDED7"/>
<path fill-rule="evenodd" clip-rule="evenodd" d="M6.48828 231.088H18.0111C18.6284 231.088 19.1336 231.592 19.1336 232.208V247.256C13.9372 242.757 9.62305 237.266 6.48828 231.088Z" fill="#F9F9FA"/>
<path fill-rule="evenodd" clip-rule="evenodd" d="M9.50781 236.284H15.4468C15.8625 236.284 16.201 236.623 16.201 237.039V241.43C16.201 241.845 15.8625 242.184 15.4468 242.184H14.0192C12.382 240.329 10.8743 238.357 9.50781 236.284Z" fill="#F5F6F5"/>
<path fill-rule="evenodd" clip-rule="evenodd" d="M15.2578 243.541H15.5672C15.9174 243.541 16.2028 243.827 16.2028 244.176V244.518C15.8824 244.196 15.5679 243.87 15.2578 243.541Z" fill="#F5F6F5"/>
<path fill-rule="evenodd" clip-rule="evenodd" d="M21.1203 240.031H29.2033C29.5833 240.031 29.8942 240.341 29.8942 240.719V253.595C29.8942 253.895 29.6984 254.153 29.429 254.246C26.2258 252.582 23.2126 250.597 20.4316 248.34V240.719C20.4309 240.341 20.7403 240.031 21.1203 240.031Z" fill="#EAEAE6"/>
<path fill-rule="evenodd" clip-rule="evenodd" d="M38.2773 219.437H65.6901C66.9765 219.437 68.0299 220.488 68.0299 221.774V251.948C68.0299 253.233 66.9765 254.285 65.6901 254.285H38.2773C36.9895 254.285 35.9375 253.233 35.9375 251.948V221.774C35.9375 220.488 36.9895 219.437 38.2773 219.437Z" fill="#EAEAE6"/>
<path fill-rule="evenodd" clip-rule="evenodd" d="M33.0405 240.031H41.1242C41.5035 240.031 41.8136 240.341 41.8136 240.719V253.595C41.8136 253.974 41.5042 254.284 41.1242 254.284H33.0405C32.6612 254.284 32.3496 253.974 32.3496 253.595V240.719C32.3496 240.341 32.6605 240.031 33.0405 240.031Z" fill="#F9F9FA"/>
<path fill-rule="evenodd" clip-rule="evenodd" d="M174.239 245.899H165.864C165.275 245.899 164.793 246.38 164.793 246.968V253.216C164.793 253.804 165.275 254.285 165.864 254.285H174.239C174.828 254.285 175.31 253.804 175.31 253.216V246.968C175.31 246.38 174.828 245.899 174.239 245.899Z" fill="#EAEAE6"/>
<path fill-rule="evenodd" clip-rule="evenodd" d="M160.82 232.349H137.835C136.954 232.349 136.234 233.068 136.234 233.948V252.686C136.234 253.565 136.954 254.285 137.835 254.285H160.82C161.701 254.285 162.422 253.565 162.422 252.686V233.948C162.421 233.068 161.701 232.349 160.82 232.349Z" fill="#EAEAE6"/>
<path fill-rule="evenodd" clip-rule="evenodd" d="M149.783 239.344H134.128C133.529 239.344 133.037 239.834 133.037 240.434V253.195C133.037 253.794 133.528 254.285 134.128 254.285H149.783C150.385 254.285 150.874 253.794 150.874 253.195V240.434C150.874 239.834 150.385 239.344 149.783 239.344Z" fill="#E1E1D9"/>
<path fill-rule="evenodd" clip-rule="evenodd" d="M154.055 243.772H148.852C148.608 243.772 148.408 243.97 148.408 244.215V253.841C148.408 254.085 148.608 254.284 148.852 254.284H154.055C154.301 254.284 154.5 254.085 154.5 253.841V244.215C154.5 243.97 154.3 243.772 154.055 243.772Z" fill="#F0F1EE"/>
<path fill-rule="evenodd" clip-rule="evenodd" d="M33.2165 172.919H13.725C7.81291 179.739 3.61599 188.075 1.81055 197.242C2.48759 197.618 3.26509 197.833 4.08919 197.833H33.2165C35.8147 197.833 37.9412 195.709 37.9412 193.113V177.638C37.9419 175.042 35.8154 172.919 33.2165 172.919Z" fill="#331C38"/>
<path fill-rule="evenodd" clip-rule="evenodd" d="M50.1801 172.919H21.0536C18.4546 172.919 16.3281 175.042 16.3281 177.638V193.112C16.3281 195.708 18.4539 197.832 21.0536 197.832H50.1801C52.7798 197.832 54.9063 195.708 54.9063 193.112V177.638C54.9063 175.042 52.7798 172.919 50.1801 172.919Z" fill="#4F3F55"/>
<path fill-rule="evenodd" clip-rule="evenodd" d="M48.6308 171.757H43.6724C43.0332 171.757 42.5098 172.279 42.5098 172.919V175.935C42.5098 176.574 43.0325 177.096 43.6724 177.096H48.6308C49.27 177.096 49.7927 176.574 49.7927 175.935V172.919C49.7927 172.279 49.2707 171.757 48.6308 171.757Z" fill="#331C38"/>
<path fill-rule="evenodd" clip-rule="evenodd" d="M48.6335 171.757H44.7212C44.082 171.757 43.5586 172.279 43.5586 172.919V175.935C43.5586 176.574 44.0813 177.096 44.7212 177.096H48.6335C49.2719 177.096 49.7954 176.574 49.7954 175.935V172.919C49.7954 172.279 49.2727 171.757 48.6335 171.757Z" fill="#4F3F55"/>
<path fill-rule="evenodd" clip-rule="evenodd" d="M47.976 174.04C47.7416 174.04 47.5501 174.231 47.5501 174.464V176.419H46.0002V174.464C46.0002 174.231 45.8087 174.04 45.5743 174.04C45.3399 174.04 45.1484 174.231 45.1484 174.464V177.124V177.579V179.677C45.1484 180.065 45.4673 180.385 45.8561 180.385H47.6943C48.083 180.385 48.4019 180.066 48.4019 179.677V177.579V177.124V174.464C48.4011 174.23 48.2097 174.04 47.976 174.04Z" fill="#3F2C44"/>
<path fill-rule="evenodd" clip-rule="evenodd" d="M27.968 171.757H23.0103C22.3711 171.757 21.8477 172.279 21.8477 172.919V175.935C21.8477 176.574 22.3704 177.096 23.0103 177.096H27.968C28.6071 177.096 29.1298 176.574 29.1298 175.935V172.919C29.1298 172.279 28.6071 171.757 27.968 171.757Z" fill="#331C38"/>
<path fill-rule="evenodd" clip-rule="evenodd" d="M27.968 171.757H24.0571C23.418 171.757 22.8945 172.279 22.8945 172.919V175.935C22.8945 176.574 23.4172 177.096 24.0571 177.096H27.968C28.6071 177.096 29.1306 176.574 29.1306 175.935V172.919C29.1306 172.279 28.6071 171.757 27.968 171.757Z" fill="#4F3F55"/>
<path fill-rule="evenodd" clip-rule="evenodd" d="M27.3112 174.04C27.0768 174.04 26.8853 174.231 26.8853 174.464V176.419H25.3354V174.464C25.3354 174.231 25.1447 174.04 24.9095 174.04C24.6758 174.04 24.4844 174.231 24.4844 174.464V177.124V177.579V179.677C24.4844 180.065 24.8032 180.385 25.192 180.385H27.0302C27.4189 180.385 27.7378 180.066 27.7378 179.677V177.579V177.124V174.464C27.7371 174.23 27.5456 174.04 27.3112 174.04Z" fill="#5A4A60"/>
<path fill-rule="evenodd" clip-rule="evenodd" d="M51.2288 182.276H20.01C19.5419 182.276 19.1582 182.659 19.1582 183.127C19.1582 183.595 19.5411 183.979 20.01 183.979H51.2288C51.6969 183.979 52.0805 183.595 52.0805 183.127C52.0805 182.659 51.6969 182.276 51.2288 182.276Z" fill="#331C38"/>
<path fill-rule="evenodd" clip-rule="evenodd" d="M51.2288 185.874H20.01C19.5419 185.874 19.1582 186.256 19.1582 186.725C19.1582 187.194 19.5411 187.576 20.01 187.576H51.2288C51.6969 187.576 52.0805 187.194 52.0805 186.725C52.0805 186.256 51.6969 185.874 51.2288 185.874Z" fill="#331C38"/>
<path fill-rule="evenodd" clip-rule="evenodd" d="M51.2288 189.471H20.01C19.5419 189.471 19.1582 189.854 19.1582 190.322V190.323C19.1582 190.79 19.5411 191.174 20.01 191.174H51.2288C51.6969 191.174 52.0805 190.79 52.0805 190.323V190.322C52.0805 189.855 51.6969 189.471 51.2288 189.471Z" fill="#331C38"/>
<path fill-rule="evenodd" clip-rule="evenodd" d="M51.2288 193.069H20.01C19.5419 193.069 19.1582 193.452 19.1582 193.92V193.921C19.1582 194.389 19.5411 194.771 20.01 194.771H51.2288C51.6969 194.771 52.0805 194.389 52.0805 193.921V193.92C52.0805 193.452 51.6969 193.069 51.2288 193.069Z" fill="#331C38"/>
<path fill-rule="evenodd" clip-rule="evenodd" d="M19.6845 197.505H57.4342C60.8027 197.505 63.5581 200.257 63.5581 203.621V223.677C63.5581 227.041 60.8027 229.793 57.4342 229.793H19.6845C16.316 229.793 13.5605 227.041 13.5605 223.677V203.621C13.5598 200.257 16.316 197.505 19.6845 197.505Z" fill="#331C38"/>
<path fill-rule="evenodd" clip-rule="evenodd" d="M1.75943 197.505H35.4484C38.8168 197.505 41.5723 200.257 41.5723 203.621V223.677C41.5723 227.041 38.8168 229.793 35.4484 229.793H5.8537C2.63012 222.981 0.820312 215.385 0.820312 207.385C0.820313 204.009 1.145 200.708 1.75943 197.505Z" fill="#4F3F55"/>
<path fill-rule="evenodd" clip-rule="evenodd" d="M2.06877 196H6.13029C6.95802 196 7.63579 196.677 7.63579 197.505V201.415C7.63579 202.242 6.95802 202.92 6.13029 202.92H1.01172C1.21265 200.567 1.56718 198.257 2.06877 196Z" fill="#331C38"/>
<path fill-rule="evenodd" clip-rule="evenodd" d="M2.06877 196H4.77475C5.60394 196 6.28098 196.677 6.28098 197.505V201.415C6.28098 202.243 5.60321 202.92 4.77475 202.92H1.01172C1.21265 200.567 1.56718 198.257 2.06877 196Z" fill="#4F3F55"/>
<path fill-rule="evenodd" clip-rule="evenodd" d="M1.10983 201.861V202.041H3.11838V199.509C3.11838 199.205 3.36663 198.957 3.66947 198.957C3.97378 198.957 4.22203 199.205 4.22203 199.509V202.957V203.546V206.265C4.22203 206.768 3.80925 207.181 3.30547 207.181H0.923458C0.889242 207.181 0.855026 207.179 0.822266 207.175C0.829546 205.382 0.92637 203.609 1.10983 201.861Z" fill="#3F2C44"/>
<path fill-rule="evenodd" clip-rule="evenodd" d="M26.4855 196H32.9101C33.7385 196 34.4163 196.677 34.4163 197.505V201.415C34.4163 202.242 33.7385 202.92 32.9101 202.92H26.4855C25.657 202.92 24.9785 202.241 24.9785 201.415V197.505C24.9792 196.676 25.657 196 26.4855 196Z" fill="#331C38"/>
<path fill-rule="evenodd" clip-rule="evenodd" d="M26.4855 196H31.5545C32.383 196 33.0608 196.677 33.0608 197.505V201.415C33.0608 202.243 32.383 202.92 31.5545 202.92H26.4855C25.657 202.92 24.9785 202.242 24.9785 201.415V197.505C24.9792 196.676 25.657 196 26.4855 196Z" fill="#4F3F55"/>
<path fill-rule="evenodd" clip-rule="evenodd" d="M27.3404 198.957C27.6447 198.957 27.8929 199.205 27.8929 199.509V202.041H29.9008V199.509C29.9008 199.205 30.1483 198.957 30.4526 198.957C30.7562 198.957 31.0044 199.205 31.0044 199.509V202.957V203.546V206.265C31.0044 206.768 30.5924 207.181 30.0871 207.181H27.7037C27.1999 207.181 26.7871 206.769 26.7871 206.265V203.546V202.957V199.509C26.7878 199.205 27.0375 198.957 27.3404 198.957Z" fill="#3F2C44"/>
<path fill-rule="evenodd" clip-rule="evenodd" d="M0.871094 209.633H36.803C37.4101 209.633 37.9074 210.13 37.9074 210.737C37.9074 211.344 37.4101 211.841 36.803 211.841H1.0116C0.94899 211.108 0.903126 210.372 0.871094 209.633Z" fill="#331C38"/>
<path fill-rule="evenodd" clip-rule="evenodd" d="M1.27734 214.297H36.8037C37.4109 214.297 37.9081 214.793 37.9081 215.399C37.9081 216.006 37.4109 216.503 36.8037 216.503H1.61732C1.48846 215.771 1.37562 215.036 1.27734 214.297Z" fill="#331C38"/>
<path fill-rule="evenodd" clip-rule="evenodd" d="M2.11133 218.959H36.8027C37.4099 218.959 37.9071 219.455 37.9071 220.062C37.9071 220.668 37.4099 221.165 36.8027 221.165H2.66242C2.46295 220.435 2.27877 219.7 2.11133 218.959Z" fill="#331C38"/>
<path fill-rule="evenodd" clip-rule="evenodd" d="M3.39844 223.622H36.8042C37.4113 223.622 37.9086 224.118 37.9086 224.724C37.9086 225.332 37.4113 225.828 36.8042 225.828H4.1723C3.89712 225.1 3.64013 224.364 3.39844 223.622Z" fill="#331C38"/>
<path fill-rule="evenodd" clip-rule="evenodd" d="M93.9844 215.273C93.9844 215.273 96.3693 223.202 97.5472 232.814H45.4632C45.2717 226.104 45.8352 220.765 47.6676 218.364C55.305 208.348 88.5542 209.091 93.9844 215.273Z" fill="#05304B"/>
<path fill-rule="evenodd" clip-rule="evenodd" d="M88.5599 192.112C88.5075 196.348 88.5853 200.127 88.8867 201.92C85.4098 200.391 81.5077 203.016 81.6577 205.909C81.8528 209.687 81.3963 212.163 86.223 219.458C88.4834 222.876 90.4876 223.892 91.9786 224.007C89.7028 225.742 87.0908 227.287 85.1099 227.659C85.1099 227.659 84.7248 227.835 84.17 227.021C83.6167 226.206 81.3978 217.477 79.8974 215.392C79.4206 214.729 79.8057 208.781 80.5511 200.981C72.7521 203.514 59.9094 203.002 54.0687 201.003C53.5372 200.079 53.2628 199.508 53.3174 199.395C53.5292 198.955 57.6577 192.823 62.5855 185.851C66.9062 192.651 70.6431 198.304 70.6431 198.304L88.5599 192.112Z" fill="#004268"/>
<path fill-rule="evenodd" clip-rule="evenodd" d="M53.1648 196.38C53.3453 195.715 53.4786 195.12 53.5514 194.613C53.6431 193.969 53.686 193.22 53.6795 192.392C54.2728 185.74 53.4261 179.518 50.6277 172.479C45.9263 160.654 38.9782 141.142 38.9746 141.132C39.2673 140.832 39.5614 140.548 39.8591 140.279C40.5493 139.493 41.5328 138.817 42.6095 138.248C44.6865 137.027 46.9367 136.326 49.46 135.881L49.5051 135.871C49.5051 135.871 49.5415 135.864 49.6085 135.854C54.8246 134.957 61.2128 135.118 69.6664 134.034C70.1854 134.05 70.5087 134.114 70.9928 134.119C76.982 134.197 93.5331 154.81 90.9116 165.399C90.9116 165.399 89.5859 171.004 89.0639 178.943C88.5419 186.892 88.2034 200.836 89.1163 202.791C90.0292 204.746 100.25 224.257 100.787 225.59C103.135 231.415 61.3817 233.636 47.7099 221.75C48.4401 216.432 49.3952 211.121 50.627 206.967C51.7488 203.186 52.6137 199.703 53.1648 196.38Z" fill="white"/>
<path fill-rule="evenodd" clip-rule="evenodd" d="M53.1648 196.381C53.3453 195.716 53.4786 195.12 53.5514 194.613C53.6431 193.969 53.686 193.219 53.6795 192.39C54.2728 185.738 53.4254 179.517 50.6277 172.479C45.9263 160.654 38.9797 141.146 38.9746 141.132C39.2673 140.833 39.5614 140.549 39.8591 140.279C40.5493 139.493 41.5328 138.817 42.611 138.248C44.6865 137.027 46.936 136.326 49.4607 135.881L49.5059 135.871C49.5059 135.871 49.5423 135.864 49.6092 135.854C50.9043 135.631 52.5169 134.714 53.9714 134.586C56.0316 134.406 58.0205 135.045 60.4652 134.884C60.4652 134.884 46.5327 145.474 60.795 172.318C67.6862 185.291 61.346 193.588 52.8408 198.173C52.9595 197.571 53.0672 196.973 53.1648 196.381Z" fill="#FDF1EF"/>
<path fill-rule="evenodd" clip-rule="evenodd" d="M54.4145 117.128L54.7552 121.666C54.7552 121.666 55.0529 130.975 55.0988 132.388C55.1177 132.986 54.6489 133.675 53.7877 134.299C52.8857 134.953 57.0513 136.96 55.398 137.295C55.3703 137.3 62.2791 137.267 66.7927 137.197C69.6319 137.153 71.1359 139.902 70.5892 133.841C70.587 133.807 70.5244 133.814 70.4923 133.8C69.4797 133.374 69.9376 133.807 69.0633 133.043C68.9381 132.934 68.8034 132.806 68.6578 132.657C67.0467 131.011 66.8749 123.445 68.3688 121.418C69.8604 119.388 54.4145 117.128 54.4145 117.128Z" fill="#E8685B"/>
<path fill-rule="evenodd" clip-rule="evenodd" d="M107.857 151.405L111.79 150.74C111.79 150.74 114.693 155.621 109.791 164.811C109.791 164.811 107.714 161.878 107.493 160.264C107.273 158.65 107.857 151.405 107.857 151.405Z" fill="#F8CFBE"/>
<path fill-rule="evenodd" clip-rule="evenodd" d="M76.8341 135.733C87.9318 140.038 102.702 147.516 113.905 152.634C117.058 154.074 119.836 155.326 120.467 152.729C121.88 146.904 122.791 134.663 123.196 126.959C123.299 125.015 121.151 122.998 120.614 121.894C120.329 121.308 124.229 119.809 124.806 119.958C126.866 120.485 129.55 118.584 130.527 120.061C130.343 120.919 129.776 123.298 129.859 126.257C130.039 132.705 131.12 143.85 127.916 160.785C127.871 160.917 128.529 158.487 127.791 161.188C127.216 163.29 124.609 165.247 122.325 165.567C118.09 166.164 92.283 157.65 87.7709 155.388C85.1574 154.077 82.8307 152.668 80.7268 151.222C82.4536 146.898 75.4182 139.702 76.8341 135.733Z" fill="#F4AD85"/>
<path fill-rule="evenodd" clip-rule="evenodd" d="M128.942 119.92C129.804 119.915 130.285 119.716 130.675 120.306C130.49 121.164 129.778 123.297 129.86 126.257C130.039 132.704 131.121 143.85 127.917 160.785C127.871 160.917 128.53 158.487 127.792 161.188C127.217 163.29 124.61 165.246 122.326 165.567C120.291 165.855 113.275 164.038 106.034 161.821C105.58 158.539 105.312 156.318 105.312 156.318L109.648 152.906C109.648 152.906 111.81 159.092 113.625 160.589C115.44 162.087 121.895 162.912 123.812 162.118C125.73 161.323 128.195 143.243 128.078 135.391C127.961 127.538 127.397 125.009 126.711 123.511C126.253 122.506 127.671 121.684 128.942 119.92Z" fill="#EF8871"/>
<path fill-rule="evenodd" clip-rule="evenodd" d="M75.084 136.059L76.3689 135.445C76.3689 135.445 90.8896 140.459 111.792 150.739C110.613 152.126 107.496 160.263 109.794 164.81L94.997 163.11L75.084 136.059Z" fill="white"/>
<path fill-rule="evenodd" clip-rule="evenodd" d="M75.084 136.059L76.3689 135.445L76.3733 135.447L76.3806 135.449H76.382L76.3973 135.455L76.4119 135.46L76.4191 135.463L76.4468 135.473L76.4643 135.479L76.481 135.485L76.5211 135.5L76.5378 135.505L76.5669 135.516L76.6193 135.535L76.631 135.539L76.6783 135.555L76.7424 135.577L76.7453 135.579L76.8123 135.602L76.8792 135.625L76.8872 135.629L76.9695 135.659L77.0328 135.681L77.0569 135.69L77.1501 135.724L77.2061 135.745L77.2498 135.759L77.3546 135.798L77.4005 135.814L77.466 135.838L77.5825 135.881L77.6131 135.892L77.7048 135.926L77.8329 135.972L77.8453 135.977L77.9654 136.022L78.0972 136.07L78.1052 136.073L78.2493 136.126L78.3673 136.17L78.4008 136.182L78.5558 136.24L78.6563 136.277L78.7174 136.3L78.8841 136.362L78.9635 136.392L79.0567 136.426L79.2343 136.494L79.2904 136.514L79.417 136.56L79.6049 136.632L79.6333 136.643L79.7985 136.706L79.9958 136.781L79.998 136.782L80.2011 136.859L80.3751 136.924L80.4108 136.939L80.6248 137.021L80.7718 137.077L80.8447 137.104L81.0689 137.189L81.1861 137.235L81.2982 137.279L81.328 137.291L81.7721 137.462L82.0175 137.557L82.0662 137.576L82.2664 137.654L82.5212 137.754L82.5314 137.757L82.7804 137.855L83.0134 137.947L83.0439 137.959L83.314 138.066L83.5106 138.145L83.5878 138.175L83.8666 138.285L84.026 138.348L84.149 138.399L84.4373 138.512L84.556 138.56L84.7307 138.63L85.0285 138.749L85.2512 138.839L85.3306 138.87L85.6371 138.994L85.6655 139.007L85.9494 139.121L86.2435 139.241L86.2653 139.25L86.5849 139.38L86.8368 139.482L86.9103 139.513L87.2409 139.648L87.4454 139.732L87.5743 139.785L87.9121 139.924C89.1176 143.473 91.0519 147.508 94.1518 151.187C99.6467 157.709 106.254 156.698 109.778 155.474C108.934 158.478 108.489 162.222 109.792 164.808L84.8538 161.895L75.084 136.059Z" fill="#FDF1EF"/>
<path fill-rule="evenodd" clip-rule="evenodd" d="M26.6289 175.754L25.3359 176.418C25.3359 176.418 25.4692 177.963 29.6188 180.784C33.7684 183.604 37.0356 184.807 37.0356 184.807L37.1696 181.494L26.6289 175.754Z" fill="#F8CFBE"/>
<path fill-rule="evenodd" clip-rule="evenodd" d="M71.9962 134.249C86.4877 148.792 66.7327 156.499 57.4551 144.856C51.6682 137.597 49.035 135.959 49.035 135.959C49.035 135.959 48.821 135.768 48.4264 135.828C48.0319 135.888 44.7406 137.053 44.3817 137.184C44.0228 137.316 43.9871 137.525 43.9871 137.525C43.9871 137.525 62.1005 151.554 48.3434 168.714C48.3434 168.714 59.4753 183.097 48.5218 206.727C48.5218 206.727 39.8054 225.381 44.3766 229.693C48.9477 234.005 102.627 226.902 102.627 226.902C102.627 226.902 94.1113 210.785 92.1487 206.815C90.1838 202.845 88.6033 198.779 89.2738 188.351C89.945 177.923 91.9681 166.182 91.5313 159.567C91.0952 152.954 77.7524 137.107 77.082 136.008C76.4107 134.907 72.6579 133.965 71.9962 134.249Z" fill="#E67170"/>
<path fill-rule="evenodd" clip-rule="evenodd" d="M53.4692 156.552C52.675 162.471 50.1124 166.862 48.3434 168.714C48.3434 168.714 59.4752 183.098 48.5225 206.727C48.5225 206.727 40.8938 222.5 43.0239 228.954C45.154 235.406 49.787 227.893 53.1336 227.863C53.5981 208.144 56.5086 169.346 90.0585 179.563C90.5587 174.827 91.1185 170.183 91.4039 166.193C78.7672 171.072 55.3336 176.063 53.4692 156.552Z" fill="#D84F50"/>
<path fill-rule="evenodd" clip-rule="evenodd" d="M38.3448 141.924C36.6274 144.887 21.1392 187.758 22.7365 196.327C24.333 204.898 36.3719 220.507 42.6167 224.718C42.6167 224.718 43.3199 225.146 43.7094 224.133C44.0996 223.12 45.5076 223.327 46.9526 222.47C40.4254 211.14 37.0548 207.249 32.9881 194.717C30.7641 187.861 45.3387 169.542 47.8932 165.198C53.9684 154.858 42.1107 135.428 38.3448 141.924Z" fill="#F4AD85"/>
<path fill-rule="evenodd" clip-rule="evenodd" d="M55.1327 225.822C55.1997 223.223 53.1234 221.04 50.5201 220.973L45.9868 220.856C43.3828 220.789 41.1973 222.862 41.1311 225.462V225.463C41.1274 225.584 41.1282 225.703 41.1347 225.822H55.1327Z" fill="#F4AD85"/>
<path fill-rule="evenodd" clip-rule="evenodd" d="M29.1664 83.0794C23.5848 84.6194 20.3095 90.3884 21.8522 95.964C23.3941 101.54 29.1707 104.811 34.753 103.27C40.3346 101.729 43.6099 95.9603 42.068 90.3848C40.5254 84.8092 34.7487 81.5386 29.1664 83.0794Z" fill="#3F2C44"/>
<path fill-rule="evenodd" clip-rule="evenodd" d="M45.8443 78.4521C45.8443 78.4521 37.9127 75.0208 33.6801 83.1594C30.3292 89.6017 27.9573 98.3686 31.0535 108.57C31.5129 109.995 37.2372 126.754 52.306 124.919C68.0418 123.003 75.3014 109.897 75.3014 109.897C91.5707 98.0101 63.9817 59.4241 45.8443 78.4521Z" fill="#3F2C44"/>
<path fill-rule="evenodd" clip-rule="evenodd" d="M30.7994 90.4249C29.3543 95.6601 29.0013 101.782 31.0426 108.534C31.4124 109.697 37.1046 126.77 52.3067 124.919C50.4336 115.09 48.7308 107.969 48.7308 107.969L64.4374 98.8645L63.8761 85.5786C42.6971 113.395 30.806 90.4365 30.7994 90.4249Z" fill="#331C38"/>
<path fill-rule="evenodd" clip-rule="evenodd" d="M74.8794 110.59C70.7858 103.453 47.8975 109.84 47.8975 109.84L43.1575 106.461C43.1575 106.461 34.7163 108.515 37.7688 119.709C41.1155 123.08 45.8533 125.705 52.3077 124.919C65.8602 123.269 73.1249 113.319 74.8794 110.59Z" fill="#331C38"/>
<path fill-rule="evenodd" clip-rule="evenodd" d="M40.5382 107.589C37.9036 107.959 36.069 110.393 36.4403 113.024C36.8109 115.656 39.2482 117.488 41.8829 117.118C44.5175 116.747 46.3528 114.314 45.9815 111.682C45.6102 109.051 43.1736 107.218 40.5382 107.589Z" fill="#E8685B"/>
<path fill-rule="evenodd" clip-rule="evenodd" d="M54.5731 81.0443C45.586 82.3087 39.2691 90.6851 40.5344 99.6614L42.6237 114.492C43.8883 123.468 52.2763 129.778 61.2627 128.515C70.2492 127.251 76.5667 118.874 75.3022 109.898L73.2121 95.0667C71.9468 86.0912 63.5596 79.7812 54.5731 81.0443Z" fill="#F4AD85"/>
<path fill-rule="evenodd" clip-rule="evenodd" d="M41.1411 92.4237C40.4189 94.6952 40.1809 97.1536 40.5347 99.66L42.624 114.492C43.8886 123.467 52.2759 129.777 61.263 128.514C61.7966 128.439 62.3201 128.338 62.834 128.214C44.9908 127.759 41.2809 107.383 48.6271 105.461C57.706 103.087 65.0435 94.621 65.0435 94.621C66.8147 97.0075 70.9527 98.3097 73.7584 98.9452L73.2117 95.0653C72.0753 87.0074 65.2008 81.0988 57.3042 80.8901C54.687 81.57 52.3639 82.3909 51.1744 82.5574C48.0578 82.9966 44.1477 88.6914 41.73 91.7671C41.583 91.9583 41.3821 92.1772 41.1411 92.4237Z" fill="#EF8871"/>
<path fill-rule="evenodd" clip-rule="evenodd" d="M58.5782 117.414C58.9109 119.782 61.1029 121.429 63.4733 121.096C65.8444 120.763 67.494 118.574 67.1613 116.207L67.154 116.208C67.0965 115.801 66.7165 115.515 66.3081 115.571L59.2225 116.568C58.8141 116.625 58.528 117.005 58.5855 117.413L58.5782 117.414Z" fill="white"/>
<path fill-rule="evenodd" clip-rule="evenodd" d="M71.3888 110.99C70.0835 111.174 69.1735 112.38 69.3577 113.683C69.5419 114.988 70.7489 115.897 72.0549 115.713C73.3602 115.529 74.2695 114.323 74.0853 113.019C73.9018 111.716 72.6941 110.807 71.3888 110.99Z" fill="#E8685B"/>
<path fill-rule="evenodd" clip-rule="evenodd" d="M51.0509 113.85C49.7449 114.033 48.8356 115.239 49.0198 116.544C49.204 117.848 50.411 118.756 51.717 118.572C53.0223 118.388 53.9316 117.183 53.7482 115.878C53.564 114.575 52.3562 113.666 51.0509 113.85Z" fill="#E8685B"/>
<path fill-rule="evenodd" clip-rule="evenodd" d="M39.5508 107.836L42.8515 105.879C42.8515 105.879 45.334 109.861 42.2458 111.797L41.959 109.765C41.8156 108.745 41.1458 107.612 39.5508 107.836Z" fill="#331C38"/>
<path fill-rule="evenodd" clip-rule="evenodd" d="M63.8755 85.5785C63.8755 85.5785 63.8537 98.0384 40.538 107.59L38.3125 89.8961L49.4589 79.4431L61.7592 79.3674C61.7592 79.3674 68.7728 85.2658 69.5095 86.0918C70.247 86.9186 75.6924 95.2833 75.6924 95.2833L73.5644 97.5636C73.5644 97.5636 68.0266 95.9472 63.8755 85.5785Z" fill="#3F2C44"/>
<path fill-rule="evenodd" clip-rule="evenodd" d="M63.8759 85.5786C63.8759 85.5786 63.8541 98.0385 40.5377 107.59L39.3867 98.4326C45.0069 100.703 53.2799 99.4957 63.8759 85.5786Z" fill="#331C38"/>
<path fill-rule="evenodd" clip-rule="evenodd" d="M31.9817 86.8851L31.9723 86.9091L31.9635 86.9324C31.7772 87.4101 31.5981 87.8973 31.4277 88.3932C45.3049 101.561 58.636 90.7403 64.9281 75.385C62.7004 74.2144 60.3555 73.4778 57.9874 73.3105C55.1649 88.6949 40.8983 95.9283 31.9817 86.8851Z" fill="#4F3F55"/>
<path fill-rule="evenodd" clip-rule="evenodd" d="M54.1634 110.322C54.2093 110.655 54.5165 110.885 54.8485 110.839C55.1812 110.792 55.4127 110.485 55.3653 110.154C55.2525 109.356 54.8252 108.678 54.2275 108.228C53.6261 107.776 52.8559 107.553 52.0573 107.665C51.2594 107.777 50.5802 108.204 50.1288 108.802C49.676 109.403 49.4532 110.173 49.5661 110.97C49.612 111.302 49.9199 111.532 50.2511 111.486C50.5838 111.439 50.8153 111.132 50.7687 110.801C50.7032 110.332 50.8321 109.881 51.0942 109.532C51.3606 109.182 51.7581 108.933 52.2277 108.867C52.6965 108.801 53.1471 108.931 53.498 109.192C53.8475 109.457 54.0972 109.854 54.1634 110.322Z" fill="#331C38"/>
<path fill-rule="evenodd" clip-rule="evenodd" d="M70.8157 107.981C70.8616 108.312 71.1696 108.544 71.5008 108.497C71.8335 108.45 72.065 108.143 72.0184 107.812C71.9056 107.013 71.4782 106.336 70.8805 105.885C70.2785 105.433 69.5083 105.21 68.7096 105.323C67.911 105.435 67.2325 105.862 66.7812 106.46C66.3284 107.061 66.1056 107.83 66.2184 108.627C66.2643 108.959 66.573 109.19 66.9035 109.144C67.2362 109.097 67.4677 108.79 67.4204 108.459C67.3556 107.991 67.4844 107.54 67.7465 107.19C68.0122 106.84 68.4104 106.59 68.88 106.525C69.3496 106.459 69.7995 106.589 70.1504 106.85C70.4998 107.115 70.7495 107.512 70.8157 107.981Z" fill="#331C38"/>
<path fill-rule="evenodd" clip-rule="evenodd" d="M45.5612 109.856L40.4871 110.569C40.0649 110.628 39.6754 110.335 39.6149 109.913C39.556 109.491 39.8501 109.102 40.2723 109.042L45.3472 108.329L45.2628 107.735C45.19 107.339 45.0007 105.647 47.0901 105.353L56.5541 104.023C58.749 103.714 58.9528 105.584 58.9725 105.859L59.0183 106.182L59.0766 106.593L63.0187 106.039L62.9612 105.627L62.916 105.305C62.8571 105.036 62.5368 103.181 64.7324 102.873L73.167 101.687C75.2556 101.393 75.5417 103.072 75.5803 103.472L76.5508 110.353C76.9009 112.838 74.6376 113.375 74.1207 113.464L74.0413 113.481L69.147 114.169C65.0833 114.74 63.834 110.863 63.2531 107.564L59.2702 108.124C59.6248 111.455 59.4952 115.526 55.4307 116.097L53.9456 116.306L49.507 116.93L49.4262 116.937C48.9057 116.993 46.5819 117.101 46.2317 114.615L45.5612 109.856ZM49.293 115.402L55.2167 114.569C58.5983 114.093 57.9059 109.259 57.4954 106.395L57.4495 106.071C57.4422 106.032 57.4364 105.992 57.4357 105.95C57.4357 105.95 57.424 105.457 56.7688 105.55L47.3048 106.88C46.7435 106.959 46.7559 107.32 46.7712 107.423C46.7806 107.456 46.7887 107.491 46.7938 107.527L46.9838 108.878L47.762 114.401C47.9178 115.507 49.0025 115.441 49.2289 115.415L49.293 115.402ZM73.8921 111.947C74.117 111.909 75.177 111.673 75.0212 110.567L74.053 103.693C74.0479 103.658 74.045 103.623 74.045 103.587C74.0311 103.486 73.9431 103.134 73.381 103.213L64.9457 104.399C64.2927 104.491 64.4164 104.967 64.4172 104.969C64.4274 105.009 64.4332 105.049 64.4368 105.089L64.482 105.413C64.8795 108.278 65.5507 113.115 68.9322 112.64L73.8258 111.953L73.8921 111.947Z" fill="#331C38"/>
<path d="M108.591 185.001H105.939V195.664H108.591V185.001Z" fill="#331C38"/>
<path fill-rule="evenodd" clip-rule="evenodd" d="M115.603 178.915H98.9259C98.0341 178.915 97.3047 179.643 97.3047 180.534V185.645C97.3047 186.536 98.0341 187.265 98.9259 187.265H115.603C116.495 187.265 117.224 186.536 117.224 185.645V180.534C117.224 179.643 116.495 178.915 115.603 178.915Z" fill="#331C38"/>
<path fill-rule="evenodd" clip-rule="evenodd" d="M115.604 180.126C115.825 180.126 116.01 180.313 116.01 180.534V185.645C116.01 185.867 115.824 186.052 115.604 186.052H98.9253C98.7039 186.052 98.5176 185.867 98.5176 185.645V180.534C98.5176 180.313 98.7032 180.126 98.9253 180.126H115.604Z" fill="white"/>
<path fill-rule="evenodd" clip-rule="evenodd" d="M109.029 193.879H88.6761C86.733 193.879 85.1445 195.467 85.1445 197.405V225.347C85.1445 227.285 86.733 228.873 88.6761 228.873H109.029C110.972 228.873 112.56 227.285 112.56 225.347V197.405C112.56 195.466 110.972 193.879 109.029 193.879Z" fill="#4F3F55"/>
<path fill-rule="evenodd" clip-rule="evenodd" d="M75.959 211.551V229.443C75.959 231.923 77.9908 233.951 80.4719 233.951H117.233C119.714 233.951 121.746 231.923 121.746 229.443V211.551C121.746 210.449 120.844 209.549 119.741 209.549H77.9646C76.8602 209.549 75.959 210.449 75.959 211.551Z" fill="#3F2C44"/>
<path fill-rule="evenodd" clip-rule="evenodd" d="M80.9023 206.473V224.365C80.9023 226.845 82.9335 228.873 85.4152 228.873H112.288C114.77 228.873 116.801 226.845 116.801 224.365V206.473C116.801 205.371 115.899 204.47 114.795 204.47H82.9073C81.8043 204.47 80.9023 205.371 80.9023 206.473Z" fill="#3F2C44"/>
<path fill-rule="evenodd" clip-rule="evenodd" d="M116.802 221.999V206.473C116.802 205.371 115.9 204.47 114.796 204.47H85.1445V217.5C85.1445 219.979 87.1764 222.007 89.6574 222.007H116.53C116.62 222.007 116.711 222.005 116.802 221.999Z" fill="#4F3F55"/>
<path fill-rule="evenodd" clip-rule="evenodd" d="M89.6327 193.879V195.664V197.755C89.6327 199.694 91.2211 201.281 93.1635 201.281H112.561V204.47H85.1445V197.405C85.1445 195.467 86.7338 193.879 88.6768 193.879H89.5387H89.6327Z" fill="#3F2C44"/>
<path fill-rule="evenodd" clip-rule="evenodd" d="M118.325 209.549V222.104C118.325 223.207 119.226 224.107 120.33 224.107H121.746V225.823H116.559C116.717 225.366 116.802 224.875 116.802 224.365V221.999V209.549H118.325Z" fill="#331C38"/>
<path fill-rule="evenodd" clip-rule="evenodd" d="M79.3806 209.549V222.104C79.3806 223.207 78.4786 224.107 77.3749 224.107H75.959V225.823H81.1467C80.9887 225.366 80.9028 224.875 80.9028 224.365V221.999V209.549H79.3806Z" fill="#331C38"/>
<path fill-rule="evenodd" clip-rule="evenodd" d="M114.274 206.431H99.0684C98.5639 206.431 98.1504 206.842 98.1504 207.348C98.1504 207.853 98.5639 208.265 99.0684 208.265H114.273C114.779 208.265 115.191 207.854 115.191 207.348C115.192 206.843 114.779 206.431 114.274 206.431Z" fill="#3F2C44"/>
<path fill-rule="evenodd" clip-rule="evenodd" d="M95.1316 206.431H95.9586C96.4639 206.431 96.8766 206.842 96.8766 207.348C96.8766 207.853 96.4639 208.265 95.9586 208.265H95.1316C94.6264 208.265 94.2129 207.854 94.2129 207.348C94.2129 206.843 94.6264 206.431 95.1316 206.431Z" fill="white"/>
<path fill-rule="evenodd" clip-rule="evenodd" d="M113.869 210.959H107.715C107.129 210.959 106.65 211.436 106.65 212.022V218.716C106.65 219.301 107.13 219.779 107.715 219.779H113.869C114.455 219.779 114.933 219.301 114.933 218.716V212.022C114.933 211.436 114.455 210.959 113.869 210.959Z" fill="white"/>
<path fill-rule="evenodd" clip-rule="evenodd" d="M104.574 210.959H88.4338C88.1855 210.959 87.9824 211.16 87.9824 211.408C87.9824 211.656 88.1855 211.859 88.4338 211.859H104.574C104.822 211.859 105.025 211.656 105.025 211.408C105.025 211.16 104.823 210.959 104.574 210.959Z" fill="#3F2C44"/>
<path fill-rule="evenodd" clip-rule="evenodd" d="M104.574 213.598H88.4338C88.1855 213.598 87.9824 213.8 87.9824 214.049C87.9824 214.297 88.1855 214.499 88.4338 214.499H104.574C104.822 214.499 105.025 214.297 105.025 214.049C105.025 213.8 104.823 213.598 104.574 213.598Z" fill="#3F2C44"/>
<path fill-rule="evenodd" clip-rule="evenodd" d="M104.574 216.239H88.4338C88.1855 216.239 87.9824 216.441 87.9824 216.689C87.9824 216.937 88.1855 217.139 88.4338 217.139H104.574C104.822 217.139 105.025 216.937 105.025 216.689C105.025 216.441 104.823 216.239 104.574 216.239Z" fill="#3F2C44"/>
<path fill-rule="evenodd" clip-rule="evenodd" d="M104.574 218.878H88.4338C88.1855 218.878 87.9824 219.081 87.9824 219.328V219.329C87.9824 219.576 88.1855 219.779 88.4338 219.779H104.574C104.822 219.779 105.025 219.576 105.025 219.329V219.328C105.025 219.081 104.823 218.878 104.574 218.878Z" fill="#3F2C44"/>
<path fill-rule="evenodd" clip-rule="evenodd" d="M207.504 238.305H10.9082C20.5367 251.528 36.1392 260.167 53.6666 260.167H207.503C209.244 260.167 210.667 258.745 210.667 257.007V241.465C210.667 239.727 209.244 238.305 207.504 238.305Z" fill="#E8685B"/>
<path fill-rule="evenodd" clip-rule="evenodd" d="M163.812 260.168H161.661H157.842H157.045V243.98H163.812L163.812 260.168ZM53.6673 260.168C51.0109 260.168 48.3995 259.967 45.8457 259.585V243.98H54.5162V260.168H53.6673ZM108.269 260.168H58.8514V243.98H108.269V260.168ZM130.735 260.168H122.064V243.98H130.735V260.168ZM144.924 260.168H142.552H139.801V243.98H144.925L144.924 260.168Z" fill="#EF8871"/>
<path fill-rule="evenodd" clip-rule="evenodd" d="M207.504 238.305H10.9082C13.5639 241.953 16.6732 245.253 20.1531 248.118H210.667V241.465C210.667 239.727 209.244 238.305 207.504 238.305Z" fill="#331C38"/>
<path fill-rule="evenodd" clip-rule="evenodd" d="M240.121 225.822H4.16992C6.80819 232.834 10.9032 239.147 16.0807 244.392H240.121C241.632 244.392 242.869 243.157 242.869 241.648V228.568C242.869 227.058 241.633 225.822 240.121 225.822Z" fill="#F4C6B3"/>
<path fill-rule="evenodd" clip-rule="evenodd" d="M76.3889 225.822H69.1875V244.392H76.3889V225.822ZM224.598 225.822H212.414V244.392H224.598V225.822ZM206.322 225.822H109.404V244.392H206.322V225.822ZM101.309 225.822H89.126V244.392H101.309V225.822Z" fill="#F3BBA2"/>
<path fill-rule="evenodd" clip-rule="evenodd" d="M205.694 252.9C204.844 252.9 204.154 253.589 204.154 254.437C204.154 255.286 204.844 255.974 205.694 255.974C206.544 255.974 207.233 255.286 207.233 254.437C207.234 253.589 206.544 252.9 205.694 252.9Z" fill="#331C38"/>
<path fill-rule="evenodd" clip-rule="evenodd" d="M6.40063 230.913H57.7472L63.5617 234.266C63.6382 234.31 63.7226 234.331 63.8056 234.331V234.333H242.869V233.349H63.9338L58.16 230.019C58.0792 229.962 57.9809 229.928 57.8746 229.928H5.91797C6.07522 230.258 6.2361 230.586 6.40063 230.913Z" fill="white"/>
<path fill-rule="evenodd" clip-rule="evenodd" d="M140.284 142.308C140.284 142.308 137.232 143.773 134.376 151.13C131.519 158.487 122.65 201.952 122.924 207.947C123.196 213.941 141.774 247.906 141.774 247.906C141.774 247.906 145.493 241.798 145.705 238.876C145.917 235.954 143.308 231.638 143.308 231.638C143.308 231.638 137.175 210.976 135.746 203.042C134.317 195.107 145.653 178.306 145.653 178.306L154.299 155.626C154.299 155.626 146.597 138.94 140.284 142.308Z" fill="#97B2BC"/>
<path fill-rule="evenodd" clip-rule="evenodd" d="M135.747 203.041C134.318 195.106 145.653 178.305 145.653 178.305L148.599 170.58C147.754 164.876 146.822 160.444 146.324 161.766C145.4 164.222 136.996 188.739 135.747 192.802C134.497 196.864 135.747 203.041 135.747 203.041Z" fill="#7D939D"/>
<path fill-rule="evenodd" clip-rule="evenodd" d="M138.256 241.355C140.336 245.278 141.774 247.906 141.774 247.906C141.774 247.906 145.494 241.798 145.706 238.876C145.918 235.954 143.309 231.638 143.309 231.638C143.309 231.638 137.75 212.909 135.984 204.267C137.015 209.599 141.087 230.618 141.515 232.349C141.928 234.018 141.334 237.818 138.256 241.355Z" fill="#7D939D"/>
<path fill-rule="evenodd" clip-rule="evenodd" d="M200.034 150.21L208.756 143.986C210.255 145.892 211.401 148.066 212.252 150.043C214.073 155.092 216.416 162.677 217.905 171.601C220.633 187.951 223.361 210.433 222.543 217.79C221.724 225.147 202.899 244.496 200.716 244.769C198.533 245.041 197.715 238.637 197.715 238.637C197.715 238.637 208.355 222.832 209.719 216.564C211.084 210.296 200.17 175.688 200.17 175.688L200.034 150.21Z" fill="#7D939D"/>
<path fill-rule="evenodd" clip-rule="evenodd" d="M143.934 235.811C143.934 235.811 141.207 245.692 140.934 260.168H202.867C202.867 260.168 204.778 248.55 201.298 239.967L143.934 235.811Z" fill="#331C38" stroke="#05304B" stroke-width="0.216" stroke-miterlimit="22.9256" stroke-linecap="round" stroke-linejoin="round"/>
<path fill-rule="evenodd" clip-rule="evenodd" d="M145.913 219.392C145.913 219.392 143.56 232.945 143.082 235.874C142.605 238.803 142.298 242.487 152.939 246.166C163.58 249.845 189.43 251.002 198.161 246.779C198.161 246.779 202.901 244.753 202.492 240.528C202.083 236.304 198.638 223.343 198.638 223.343L145.913 219.392Z" fill="white"/>
<path fill-rule="evenodd" clip-rule="evenodd" d="M145.913 219.392C145.913 219.392 143.56 232.945 143.082 235.874C142.658 238.473 142.37 241.668 149.747 244.924C148.869 242.189 148.411 238.982 148.98 236.176C150.162 230.349 154.083 226.895 158.111 227.191C162.137 227.484 178.668 227.877 191.111 227.877C195.376 227.877 198.299 228.742 200.297 229.879C199.429 226.317 198.639 223.344 198.639 223.344L145.913 219.392Z" fill="#E6E4EB"/>
<path fill-rule="evenodd" clip-rule="evenodd" d="M198.26 216.906C198.26 216.906 199.352 218.269 199.556 223.378C199.556 223.378 199.249 224.809 197.749 225.149C196.248 225.49 166.476 229.09 145.604 222.005C145.604 222.005 143.796 221.256 143.353 219.994C142.91 218.734 145.058 213.897 145.058 213.897L198.26 216.906Z" fill="#5F6879"/>
<path fill-rule="evenodd" clip-rule="evenodd" d="M140.283 142.308C140.283 142.308 172.021 121.348 205.122 140.568C207.181 141.91 208.835 143.876 210.14 145.963C210.953 150.406 212.141 160.251 209.856 172.556C206.718 189.45 200.307 208.117 199.897 216.429C199.897 216.429 199.625 219.63 196.214 220.039C192.803 220.448 154.334 222.378 144.922 214.884C144.922 214.884 143.87 213.812 144.139 212.36C147.386 194.886 143.863 193.002 143.98 180.931C143.98 180.931 151.219 150.025 140.283 142.308Z" fill="#97B2BC"/>
<path fill-rule="evenodd" clip-rule="evenodd" d="M140.283 142.308C140.283 142.308 172.021 121.348 205.122 140.568C207.181 141.91 208.835 143.876 210.14 145.963C210.757 149.328 211.587 155.796 210.961 164.08C205.85 163.459 197.247 164.488 184.528 172.356C164.794 184.562 148.997 187.821 151.135 217.724C148.529 216.975 146.378 216.043 144.923 214.885C144.923 214.885 143.872 213.812 144.141 212.361C147.387 194.887 143.864 193.003 143.981 180.931C143.98 180.931 151.219 150.025 140.283 142.308Z" fill="#8EA7B0"/>
<path fill-rule="evenodd" clip-rule="evenodd" d="M148.443 216.815C147.035 216.253 145.841 215.614 144.923 214.885C144.923 214.885 143.871 213.812 144.141 212.361C147.387 194.887 143.864 193.003 143.981 180.931C143.981 180.931 146.187 171.509 146.323 161.77L146.324 161.766C147.249 159.311 149.665 176.673 150.254 185.208C150.737 192.205 147.589 207.841 148.443 216.815Z" fill="#7D939D"/>
<path fill-rule="evenodd" clip-rule="evenodd" d="M180.489 76.2241C180.489 76.2241 168.894 71.1481 161.256 80.2764C153.615 89.4061 158.799 101.26 157.571 111.751C156.344 122.243 136.972 139.819 159.073 150.174C159.073 150.174 162.619 150.992 163.574 156.579C164.529 162.164 173.532 175.245 190.176 165.435C206.819 155.625 213.094 136.276 201.362 118.7C189.629 101.123 205.182 76.2241 180.489 76.2241Z" fill="#4F3F55"/>
<path fill-rule="evenodd" clip-rule="evenodd" d="M163.086 78.4091C162.457 78.9537 161.844 79.5725 161.255 80.2763C156.122 86.4088 156.778 93.7702 157.388 101.122C161.785 107.789 168.043 113.373 176.77 113.895C186.086 114.453 192.886 112.628 197.666 110.287C197.259 108.728 196.962 107.154 196.743 105.581C187.171 108.838 164.399 112.89 163.086 78.4091Z" fill="#56455B"/>
<path fill-rule="evenodd" clip-rule="evenodd" d="M157.718 110.001C157.686 110.588 157.64 111.172 157.571 111.75C156.344 122.242 136.972 139.819 159.073 150.174C159.073 150.174 162.619 150.991 163.574 156.578C164.529 162.164 173.532 175.245 190.176 165.434C206.819 155.624 213.094 136.275 201.362 118.699C201.188 118.44 201.022 118.178 200.861 117.916C198.204 143.941 159.888 137.975 157.72 110L157.718 110.001Z" fill="#3F2C44"/>
<path fill-rule="evenodd" clip-rule="evenodd" d="M157.662 110.836C157.636 111.143 157.607 111.447 157.571 111.751C156.344 122.243 136.972 139.819 159.073 150.174C159.073 150.174 162.619 150.992 163.574 156.579C164.529 162.164 173.532 175.245 190.176 165.435C206.819 155.625 213.094 136.276 201.362 118.7C201.362 118.7 209.379 131.556 198.379 144.308C187.614 156.787 158.884 150.797 157.662 110.836Z" fill="#331C38"/>
<path fill-rule="evenodd" clip-rule="evenodd" d="M139.842 142.592L139.856 142.67C141.146 143.746 150.503 152.613 144.712 179.758C144.308 180.396 143.799 181.217 143.227 182.176C143.325 181.735 143.425 181.287 143.529 180.83C150.044 152.011 139.697 143.708 139.171 143.307C139.141 143.286 139.113 143.262 139.088 143.235C139.389 142.944 139.645 142.737 139.842 142.592Z" fill="#526675"/>
<path fill-rule="evenodd" clip-rule="evenodd" d="M293.782 135.624C293.782 134.807 291.998 122.969 291.998 122.969C291.998 122.969 302.375 127.585 308.377 139.029C314.38 150.475 321.202 185.628 318.472 198.163C315.744 210.697 299.919 221.87 299.919 221.87L293.782 135.624Z" fill="#E67170"/>
<path fill-rule="evenodd" clip-rule="evenodd" d="M293.782 135.624C293.782 134.807 291.998 122.969 291.998 122.969C291.998 122.969 302.375 127.585 308.377 139.029C308.979 140.176 309.589 141.564 310.197 143.139C307.526 144.215 305.35 146.387 304.74 150.38C302.972 161.955 305.33 193.345 309.257 200.212C311.283 203.752 314.249 204.11 316.97 202.605C312.168 213.221 299.919 221.87 299.919 221.87L293.782 135.624Z" fill="#D84F50"/>
<path fill-rule="evenodd" clip-rule="evenodd" d="M224.006 248.371C224.006 248.371 222.71 251.049 224.006 260.168H293.92C293.92 260.168 298.353 257.092 298.08 245.646L224.006 248.371Z" fill="#331C38"/>
<path fill-rule="evenodd" clip-rule="evenodd" d="M223.869 243.193C223.869 243.193 222.028 247.691 222.574 249.462C223.119 251.233 228.44 256.956 246.992 257.637C265.545 258.317 284.78 256.547 291.874 252.323C298.967 248.098 300.263 245.782 299.581 239.856C298.899 233.929 223.869 243.193 223.869 243.193Z" fill="white"/>
<path fill-rule="evenodd" clip-rule="evenodd" d="M236.897 130.309L227.485 127.04C227.485 127.04 217.798 136.304 210.979 152.109C204.157 167.915 196.518 188.352 195.972 194.619C195.427 200.887 205.794 225.14 225.439 233.043C245.082 240.946 231.714 219.69 231.714 219.69C231.714 219.69 217.527 198.163 216.98 194.348C216.436 190.532 225.439 183.585 225.439 183.585C225.439 183.585 253.815 171.184 252.723 167.369C251.631 163.555 236.897 130.309 236.897 130.309Z" fill="#E67170"/>
<path fill-rule="evenodd" clip-rule="evenodd" d="M195.963 195.497C196.309 202.882 206.613 225.47 225.438 233.043C229.134 234.53 231.66 234.984 233.328 234.743C232.414 229.85 231.842 224.685 231.561 219.459C230.582 217.966 225.063 209.518 221.1 202.711C219.167 212.019 210.221 215.576 204.269 209.631C198.091 203.46 196.031 195.759 195.963 195.497ZM216.98 194.348C216.435 190.532 225.438 183.585 225.438 183.585C225.438 183.585 229.294 181.9 234.108 179.58C236.141 160.057 234.985 149.764 233.634 155.623C232.063 162.434 225.974 170.981 220.375 183.047C214.777 195.112 216.98 194.348 216.98 194.348Z" fill="#D84F50"/>
<path fill-rule="evenodd" clip-rule="evenodd" d="M257.351 59.8705C263.865 59.8705 269.196 65.1821 269.196 71.6745V95.2295C269.196 101.722 263.865 107.034 257.351 107.034C250.836 107.034 245.506 101.722 245.506 95.2295V71.6745C245.507 65.1821 250.836 59.8705 257.351 59.8705Z" fill="#F4AD85"/>
<path fill-rule="evenodd" clip-rule="evenodd" d="M256.721 93.0708H270.593C271.676 93.0708 272.562 93.9564 272.562 95.0384V121.941C272.562 123.022 271.676 123.908 270.593 123.908H256.721C255.638 123.908 254.752 123.022 254.752 121.941V95.0384C254.752 93.9564 255.638 93.0708 256.721 93.0708Z" fill="#F09576"/>
<path fill-rule="evenodd" clip-rule="evenodd" d="M243.125 77.4436C243.125 77.4436 235.288 76.3049 233.579 68.62C231.869 60.9358 236.287 49.9774 251.959 54.9589C251.959 54.9589 258.528 54.9589 264.99 54.9589C273.786 54.9589 281.058 56.7127 285.338 62.5173C292.27 71.9211 290.521 92.9392 282.028 101.287C272.345 110.804 256.632 105.91 256.721 93.0715V93.0708C257.814 91.9801 258.489 90.4721 258.489 88.8077C258.489 86.9143 257.619 85.2201 256.25 84.1192C254.61 82.8017 252.451 83.1333 252.451 88.9008V93.9841C252.451 93.9841 248.961 93.2017 248.961 89.4294C248.962 85.6585 248.962 76.9775 243.125 77.4436Z" fill="#3F2C44"/>
<path fill-rule="evenodd" clip-rule="evenodd" d="M250.096 54.4296C250.698 54.5808 251.318 54.7553 251.958 54.9582H261.459C263.642 73.0358 279.464 77.0582 289.611 77.7526C289.638 79.0411 289.608 80.3441 289.518 81.6463C264.369 83.4147 253.958 64.9466 250.096 54.4296Z" fill="#4F3F55"/>
<path fill-rule="evenodd" clip-rule="evenodd" d="M243.125 77.4435C243.125 77.4435 235.288 76.3048 233.58 68.6199C232.959 65.8329 233.146 62.6168 234.382 59.8865C234.34 60.0959 232.339 70.2814 239.629 70.2814C246.996 70.2814 258.388 71.2623 260.254 78.2266C262.031 84.8601 267.729 103.238 287.444 92.0898C286.17 95.772 284.353 99.004 282.029 101.287C272.346 110.804 256.633 105.91 256.722 93.0722C257.815 91.9815 258.49 90.4727 258.49 88.8083C258.49 86.9149 257.62 85.2207 256.251 84.1199C254.611 82.8023 252.452 83.1339 252.452 88.9014V93.9847C252.452 93.9847 248.962 93.2023 248.962 89.43C248.962 85.6585 248.962 76.9774 243.125 77.4435Z" fill="#331C38"/>
<path fill-rule="evenodd" clip-rule="evenodd" d="M242.833 119.821C242.833 119.821 232.26 122.409 227.484 127.04C227.484 127.04 242.627 155.79 225.438 183.585C225.438 183.585 220.799 230.727 221.072 235.905C221.344 241.082 222.3 243.672 225.438 246.533C228.575 249.395 248.492 254.707 272.229 251.71C295.965 248.713 300.467 241.491 301.012 238.494C301.558 235.496 304.151 216.557 302.241 185.764C300.33 154.97 303.646 125.225 289.506 122.044C275.366 118.865 242.833 119.821 242.833 119.821Z" fill="#E67170"/>
<path fill-rule="evenodd" clip-rule="evenodd" d="M242.832 119.821C242.832 119.821 236.949 121.26 231.977 123.915C232.15 123.847 237.895 121.614 240.218 126.542C242.573 131.545 239.496 160.166 272.953 160.166C272.953 160.166 262.019 132.705 262.019 128.308C262.019 126.1 258.153 122.613 254.3 119.687C247.61 119.68 242.832 119.821 242.832 119.821Z" fill="#D84F50"/>
<path fill-rule="evenodd" clip-rule="evenodd" d="M233.632 155.629C233.459 164.243 231.383 173.971 225.438 183.585C225.438 183.585 220.799 230.727 221.072 235.905C221.344 241.082 222.3 243.672 225.438 246.533C226.815 247.79 231.429 249.518 238.18 250.809C230.697 234.487 230.115 209.195 232.849 189.814C236.512 163.835 235.206 148.811 233.634 155.623L233.632 155.629Z" fill="#D84F50"/>
<path fill-rule="evenodd" clip-rule="evenodd" d="M242.832 119.821C242.832 119.821 245.628 119.684 247.265 122.409C248.903 125.135 248.698 157.563 269.024 160.151C281.953 161.798 289.03 147.79 290.646 135.097C291.978 124.622 288.724 110.938 272.807 111.468C272.723 111.472 272.561 111.457 272.561 111.543V113.791C271.474 118.559 264.391 117.475 260.975 115.395C255.367 111.977 247.932 109.094 242.832 119.821Z" fill="white"/>
<path fill-rule="evenodd" clip-rule="evenodd" d="M274.167 111.46C273.726 111.451 273.272 111.453 272.81 111.468C272.725 111.472 272.564 111.457 272.564 111.542V113.791C271.598 118.025 265.903 117.644 262.248 116.048C278.967 126.93 281.098 112.286 274.167 111.46Z" fill="#F8CFBE"/>
<path fill-rule="evenodd" clip-rule="evenodd" d="M42.2663 139.808L40.4463 139.696C40.4463 139.696 38.239 141.132 37.6508 142.676C37.0611 144.221 29.2518 163.365 25.3359 176.418C25.3359 176.418 34.8756 177.598 37.0364 184.807C37.0364 184.807 49.4735 168.106 50.1484 165.335C50.8218 162.564 52.8784 149.944 42.2663 139.808Z" fill="white"/>
<path fill-rule="evenodd" clip-rule="evenodd" d="M42.2651 139.808L40.4451 139.696C40.4451 139.696 39.5111 140.303 38.6971 141.152C51.2231 145.605 43.7393 167.335 39.2082 174.039C37.1363 177.105 34.7011 178.516 32.6074 179.13C34.5141 180.388 36.2562 182.205 37.0351 184.807C37.0351 184.807 49.4723 168.106 50.1471 165.335C50.8205 162.564 52.8771 149.944 42.2651 139.808Z" fill="#FDF1EF"/>
<path fill-rule="evenodd" clip-rule="evenodd" d="M108.404 149.094C106.57 151.623 103.071 157.659 105.49 164.315L106.53 164.435C103.886 157.871 107.509 151.85 109.249 149.501L108.404 149.094ZM110.123 149.926L110.96 150.335C109.166 152.891 106.098 158.522 108.449 164.657L107.42 164.538C105.261 158.291 108.261 152.623 110.123 149.926Z" fill="#3F2C44"/>
<path fill-rule="evenodd" clip-rule="evenodd" d="M26.5449 172.557C29.4052 172.899 36.5825 174.398 39.8825 180.929L39.2637 181.778C36.1865 175.111 28.8694 173.733 26.2558 173.452C26.3505 173.155 26.448 172.857 26.5449 172.557ZM25.9668 174.363C25.8722 174.662 25.7797 174.959 25.6895 175.254C28.6153 175.65 35.1753 177.215 38.1106 183.353L38.7265 182.513C35.5735 176.461 29.0637 174.811 25.9668 174.363Z" fill="#3F2C44"/>
<path fill-rule="evenodd" clip-rule="evenodd" d="M66.7922 137.197C66.5782 152.505 45.3738 133.693 54.663 133.482C54.663 133.482 57.3464 136.684 66.7922 137.197Z" fill="#3F2C44"/>
<path fill-rule="evenodd" clip-rule="evenodd" d="M69.0396 133.044C69.0396 133.044 70.5647 136.211 66.793 137.197C66.793 137.197 68.1856 141.4 70.904 140.725C73.6238 140.051 72.7094 132.15 69.0396 133.044Z" fill="#3F2C44"/>
<path fill-rule="evenodd" clip-rule="evenodd" d="M59.4726 157.122L65.7043 156.558C66.1112 156.522 66.4432 156.827 66.4432 157.236V159.243C66.4432 159.651 66.1112 160.016 65.7043 160.054L59.4726 160.617C59.0663 160.654 58.7344 160.349 58.7344 159.939V157.933C58.7344 157.524 59.0671 157.159 59.4726 157.122Z" fill="white"/>
<path fill-rule="evenodd" clip-rule="evenodd" d="M80.1991 41.7195C80.1991 41.4235 79.9582 41.1843 79.6633 41.1843C79.367 41.1843 79.1268 41.4235 79.1268 41.7195V42.9789H77.8659C77.5696 42.9789 77.3301 43.2181 77.3301 43.514C77.3301 43.8099 77.5696 44.0492 77.8659 44.0492H79.1268V45.3085C79.1268 45.6045 79.3663 45.8437 79.6633 45.8437C79.9589 45.8437 80.1991 45.6045 80.1991 45.3085V44.0492H81.46C81.7556 44.0492 81.9958 43.8099 81.9958 43.514C81.9958 43.2181 81.7556 42.9789 81.46 42.9789H80.1991V41.7195Z" fill="white"/>
<path fill-rule="evenodd" clip-rule="evenodd" d="M222.566 103.714C222.566 103.419 222.326 103.179 222.031 103.179C221.734 103.179 221.495 103.419 221.495 103.714V104.974H220.234C219.939 104.974 219.699 105.213 219.699 105.509C219.699 105.805 219.939 106.044 220.234 106.044H221.495V107.303C221.495 107.599 221.734 107.839 222.031 107.839C222.326 107.839 222.566 107.599 222.566 107.303V106.044H223.827C224.123 106.044 224.363 105.805 224.363 105.509C224.363 105.213 224.123 104.974 223.827 104.974H222.566V103.714Z" fill="white"/>
<path fill-rule="evenodd" clip-rule="evenodd" d="M207.245 10.7217C207.245 10.4257 207.006 10.1858 206.709 10.1858C206.415 10.1858 206.174 10.4257 206.174 10.7217V11.9803H204.913C204.617 11.9803 204.377 12.2195 204.377 12.5155C204.377 12.8114 204.617 13.0514 204.913 13.0514H206.174V14.31C206.174 14.6059 206.415 14.8459 206.709 14.8459C207.006 14.8459 207.245 14.6059 207.245 14.31V13.0514H208.506C208.802 13.0514 209.041 12.8114 209.041 12.5155C209.041 12.2195 208.802 11.9803 208.506 11.9803H207.245V10.7217Z" fill="white"/>
<path fill-rule="evenodd" clip-rule="evenodd" d="M135.747 21.3158C135.747 21.0206 135.507 20.7806 135.211 20.7806C134.914 20.7806 134.675 21.0206 134.675 21.3158V22.5752H133.415C133.118 22.5752 132.879 22.8144 132.879 23.1103C132.879 23.4063 133.118 23.6455 133.415 23.6455H134.675V24.9049C134.675 25.2008 134.914 25.44 135.211 25.44C135.507 25.44 135.747 25.2008 135.747 24.9049V23.6455H137.007C137.304 23.6455 137.544 23.4055 137.544 23.1103C137.544 22.8151 137.304 22.5752 137.007 22.5752H135.747V21.3158Z" fill="white"/>
<path fill-rule="evenodd" clip-rule="evenodd" d="M301.136 111.169C301.136 110.874 300.896 110.634 300.601 110.634C300.304 110.634 300.066 110.874 300.066 111.169V112.429H298.805C298.509 112.429 298.27 112.669 298.27 112.964C298.27 113.26 298.509 113.499 298.805 113.499H300.066V114.758C300.066 115.054 300.304 115.293 300.601 115.293C300.896 115.293 301.136 115.053 301.136 114.758V113.499H302.397C302.693 113.499 302.933 113.259 302.933 112.964C302.933 112.669 302.693 112.429 302.397 112.429H301.136V111.169Z" fill="white"/>
<path fill-rule="evenodd" clip-rule="evenodd" d="M102.355 137.607C102.355 137.311 102.115 137.072 101.82 137.072C101.523 137.072 101.282 137.311 101.282 137.607V138.866H100.023C99.7258 138.866 99.4863 139.105 99.4863 139.401C99.4863 139.697 99.7258 139.936 100.023 139.936H101.282V141.195C101.282 141.49 101.523 141.73 101.82 141.73C102.115 141.73 102.355 141.49 102.355 141.195V139.936H103.616C103.912 139.936 104.152 139.697 104.152 139.401C104.152 139.105 103.912 138.866 103.616 138.866H102.355V137.607Z" fill="white"/>
<path fill-rule="evenodd" clip-rule="evenodd" d="M156.96 35.7266C156.96 35.4314 156.719 35.1914 156.424 35.1914C156.128 35.1914 155.887 35.4321 155.887 35.7266V36.9859H154.626C154.33 36.9859 154.09 37.2252 154.09 37.5211C154.09 37.817 154.33 38.0563 154.626 38.0563H155.887V39.3156C155.887 39.6116 156.128 39.8508 156.424 39.8508C156.719 39.8508 156.96 39.6116 156.96 39.3156V38.0563H158.22C158.516 38.0563 158.756 37.817 158.756 37.5211C158.756 37.2252 158.516 36.9859 158.22 36.9859H156.96V35.7266Z" fill="#719FD4"/>
<path fill-rule="evenodd" clip-rule="evenodd" d="M209.605 89.875C209.605 89.5791 209.365 89.3398 209.068 89.3398C208.773 89.3398 208.533 89.5791 208.533 89.875V91.1336H207.272C206.977 91.1336 206.736 91.3736 206.736 91.6695C206.736 91.9655 206.977 92.2047 207.272 92.2047H208.533V93.4641C208.533 93.7593 208.773 93.9992 209.068 93.9992C209.365 93.9992 209.605 93.7593 209.605 93.4641V92.2047H210.864C211.16 92.2047 211.4 91.9647 211.4 91.6695C211.4 91.3736 211.16 91.1336 210.864 91.1336H209.605V89.875Z" fill="#719FD4"/>
<path fill-rule="evenodd" clip-rule="evenodd" d="M101.568 102.168C101.568 101.872 101.328 101.632 101.032 101.632C100.736 101.632 100.496 101.873 100.496 102.168V103.426H99.235C98.9395 103.426 98.6992 103.666 98.6992 103.962C98.6992 104.257 98.9395 104.497 99.235 104.497H100.496V105.757C100.496 106.052 100.736 106.292 101.032 106.292C101.328 106.292 101.568 106.052 101.568 105.757V104.497H102.828C103.125 104.497 103.364 104.257 103.364 103.962C103.364 103.666 103.125 103.426 102.828 103.426H101.568V102.168Z" fill="#719FD4"/>
<path fill-rule="evenodd" clip-rule="evenodd" d="M122.708 173.844C122.708 173.548 122.469 173.308 122.172 173.308C121.877 173.308 121.636 173.548 121.636 173.844V175.103H120.376C120.08 175.103 119.84 175.342 119.84 175.638C119.84 175.933 120.081 176.173 120.376 176.173H121.636V177.432C121.636 177.728 121.877 177.968 122.172 177.968C122.469 177.968 122.708 177.728 122.708 177.432V176.173H123.969C124.265 176.173 124.505 175.933 124.505 175.638C124.505 175.342 124.265 175.103 123.969 175.103H122.708V173.844Z" fill="#719FD4"/>
</svg>
